<svg width="20" height="20" viewBox="0 0 20 20" fill="none" xmlns="http://www.w3.org/2000/svg">
<g clip-path="url(#clip0_2_163)">
<path d="M5.01042 2.22364C3.71181 2.19759 2.21181 2.55002 0.645833 3.23926C0.249306 3.41377 0 3.81808 0 4.25141V16.6681C0 17.0691 0.416319 17.3469 0.779514 17.1768C5.16493 15.1233 8.41146 17.5587 8.55035 17.6632C8.64931 17.7396 8.76736 17.7778 8.88889 17.7778C9.31944 17.7778 9.44444 17.3827 9.44444 17.2229V3.8903C9.44444 3.70964 9.35656 3.5403 9.20899 3.43614C9.14236 3.38822 7.52431 2.26912 5.01042 2.22364ZM19.3542 3.23926C17.7878 2.55211 16.2819 2.21114 14.9896 2.22329C12.4743 2.26884 10.8889 3.38822 10.7917 3.43579C10.6424 3.5403 10.5556 3.7094 10.5556 3.8903V17.1924C10.5556 17.375 10.6771 17.7778 11.1111 17.7778C11.2321 17.7778 11.352 17.7387 11.4507 17.6622C11.587 17.5575 14.8341 15.122 19.2216 17.1761C19.5848 17.3461 20.0011 17.0683 20.0011 16.6675L20.0011 4.25079C19.9688 3.81843 19.75 3.41357 19.3542 3.23926Z" fill="white"/>
</g>
<defs>
<clipPath id="clip0_2_163">
<rect width="20" height="20" fill="white"/>
</clipPath>
</defs>
</svg>
