<svg width="28" height="28" viewBox="0 0 28 28" fill="none" xmlns="http://www.w3.org/2000/svg">
<g clip-path="url(#clip0_2_109)">
<path d="M19.25 5.25C19.25 6.03203 19.0805 6.77578 18.7688 7.44844L21.6562 12.4359C20.3602 13.8195 18.6977 14.8477 16.8219 15.3672L14 10.5H13.9508L10.2758 16.9258C11.4516 17.2977 12.7039 17.5 14 17.5C17.8664 17.5 21.3172 15.7117 23.5648 12.857C24.1664 12.1516 25.2711 11.982 26.0258 12.6328C26.7805 13.2398 26.9008 14.3391 26.2937 15.0938C23.4117 18.6922 18.9273 21 14 21C12.0641 21 10.2047 20.65 8.49297 20.0102L5.39492 25.3586C5.13789 25.8016 4.75617 26.1625 4.29734 26.3922L1.26656 27.907C0.995313 28.0437 0.673203 28.0273 0.414969 27.8687C0.157008 27.7102 0 27.4258 0 27.125V24.0953C0 23.6359 0.121844 23.182 0.353281 22.7773L3.63617 17.1117C2.93453 16.4937 2.28813 15.8211 1.70516 15.0938C1.10086 14.3391 1.22172 13.2398 1.97586 12.6328C2.73 11.982 3.83141 12.1516 4.43625 12.857C4.74633 13.2945 5.07883 13.6609 5.43266 14.0055L9.23125 7.44844C8.91953 6.77578 8.75 6.03203 8.75 5.25C8.75 2.35047 11.0523 0 14 0C16.8984 0 19.25 2.35047 19.25 5.25ZM14 7C14.968 7 15.75 6.21797 15.75 5.25C15.75 4.28367 14.968 3.5 14 3.5C13.032 3.5 12.25 4.28367 12.25 5.25C12.25 6.21797 13.032 7 14 7ZM20.3492 21.5414C22.1758 20.8414 23.8164 19.8625 25.2547 18.6484L27.6445 22.7773C27.8797 23.182 28 23.6359 28 24.0953V27.125C28 27.4258 27.8414 27.7102 27.5844 27.8687C27.3273 28.0273 27.0047 28.0437 26.7312 27.907L23.7016 26.3922C23.2422 26.1625 22.8648 25.8016 22.6023 25.3586L20.3492 21.5414Z" fill="white"/>
</g>
<defs>
<clipPath id="clip0_2_109">
<rect width="28" height="28" fill="white"/>
</clipPath>
</defs>
</svg>
