<svg width="20" height="20" viewBox="0 0 20 20" fill="none" xmlns="http://www.w3.org/2000/svg">
<path d="M20 11.2461L19.9998 15.6211C19.9648 17.3477 18.5977 18.75 16.875 18.75C15.841 18.75 15 17.9078 15 16.8727V11.8789C15 10.8438 15.8398 10 16.875 10C17.298 10 17.6918 10.1064 18.0586 10.2609C17.5664 6.21484 14.1445 3.13008 10 3.13008C5.85547 3.13008 2.4332 6.21484 1.94141 10.2617C2.3082 10.1055 2.70195 10 3.125 10C4.16016 10 5 10.8438 5 11.8789V16.875C5 17.9062 4.16016 18.75 3.125 18.75C1.40195 18.75 0.0351562 17.3484 0.0351562 15.6227L0 11.25C0 5.73438 4.48438 1.25 10 1.25C15.5039 1.25 19.9844 5.72266 19.9648 11.2227C19.9648 11.2305 19.9648 11.2383 20 11.2461Z" fill="white"/>
</svg>
