<svg width="28" height="28" viewBox="0 0 28 28" fill="none" xmlns="http://www.w3.org/2000/svg">
<g clip-path="url(#clip0_2_121)">
<path d="M13.9956 16.8C16.5073 16.8 18.5063 14.763 18.5063 12.25C18.5063 9.73699 16.4701 7.69999 13.9956 7.69999C11.4839 7.69999 9.485 9.73699 9.485 12.25C9.44563 14.7612 11.4844 16.8 13.9956 16.8ZM16.1831 18.2H11.8169C8.3825 18.2 5.6 20.8119 5.6 24.0319C5.6 24.6794 6.15562 25.2 6.8425 25.2H21.1575C21.8444 25.2 22.4 24.6794 22.4 24.0319C22.4 20.8119 19.6175 18.2 16.1831 18.2ZM22.4 9.79999C24.3329 9.79999 25.9 8.23286 25.9 6.29999C25.9 4.36711 24.3337 2.79999 22.4 2.79999C20.4671 2.79999 18.9 4.36711 18.9 6.29999C18.9 8.23286 20.4662 9.79999 22.4 9.79999ZM8.04562 12.25C8.04562 12.0116 8.0886 11.7849 8.11602 11.5539C7.63875 11.2919 7.11375 11.2 6.55812 11.2H3.8535C1.7255 11.2 0 13.0287 0 15.2819C0 15.7325 0.345056 16.1 0.770875 16.1H9.499C8.60562 15.0587 8.04562 13.7244 8.04562 12.25ZM5.6 9.79999C7.53288 9.79999 9.1 8.23286 9.1 6.29999C9.1 4.36711 7.53375 2.79999 5.6 2.79999C3.66712 2.79999 2.1 4.36711 2.1 6.29999C2.1 8.23286 3.66712 9.79999 5.6 9.79999ZM24.1456 11.2H21.4401C20.8801 11.2 20.3516 11.3329 19.8713 11.5605C19.8975 11.7906 19.9412 12.0137 19.9412 12.25C19.9412 13.7248 19.3821 15.0592 18.4905 16.1H27.2274C27.6544 16.1 28 15.7325 28 15.2819C28 13.0287 26.2763 11.2 24.1456 11.2Z" fill="white"/>
</g>
<defs>
<clipPath id="clip0_2_121">
<rect width="28" height="28" fill="white"/>
</clipPath>
</defs>
</svg>
