<svg width="16" height="16" viewBox="0 0 16 16" fill="none" xmlns="http://www.w3.org/2000/svg">
<g clip-path="url(#clip0_2_21)">
<path d="M8 16C3.58125 16 0 12.4187 0 8C0 3.58125 3.58125 0 8 0C12.4187 0 16 3.58125 16 8C16 12.4187 12.4187 16 8 16ZM7.25 8C7.25 8.25 7.375 8.48438 7.58437 8.59688L10.5844 10.5969C10.9281 10.8531 11.3938 10.7594 11.5969 10.4156C11.8531 10.0719 11.7594 9.60625 11.4156 9.375L8.75 7.6V3.75C8.75 3.33437 8.41563 3 7.97188 3C7.58438 3 7.22188 3.33437 7.22188 3.75L7.25 8Z" fill="white"/>
</g>
<defs>
<clipPath id="clip0_2_21">
<rect width="16" height="16" fill="white"/>
</clipPath>
</defs>
</svg>
