<svg width="24" height="24" viewBox="0 0 24 24" fill="none" xmlns="http://www.w3.org/2000/svg">
<path d="M0 8.94838V8.6765C0 5.39994 2.36813 2.60525 5.59688 2.06713C7.69219 1.71135 9.90938 2.40791 11.4375 3.93838L12 4.49994L12.5203 3.93838C14.0906 2.40791 16.2656 1.71135 18.4031 2.06713C21.6328 2.60525 24 5.39994 24 8.6765V8.94838C24 10.8937 23.1938 12.7546 21.7687 14.0812L13.2984 21.989C12.9469 22.3171 12.4828 22.4999 12 22.4999C11.5172 22.4999 11.0531 22.3171 10.7016 21.989L2.23078 14.0812C0.807656 12.7546 0 10.8937 0 8.94838Z" fill="#F7F7F7"/>
</svg>
