<svg width="28" height="28" viewBox="0 0 28 28" fill="none" xmlns="http://www.w3.org/2000/svg">
<path d="M3.5 21.875C3.5 22.3563 3.89156 22.75 4.375 22.75H26.25C27.218 22.75 28 23.532 28 24.5C28 25.468 27.218 26.25 26.25 26.25H4.375C1.95891 26.25 0 24.2922 0 21.875V3.5C0 2.53367 0.783672 1.75 1.75 1.75C2.71633 1.75 3.5 2.53367 3.5 3.5V21.875ZM18.7359 15.2359C18.0523 15.9195 16.9477 15.9195 16.2641 15.2359L13.125 12.1023L8.23594 16.9859C7.55234 17.6695 6.44766 17.6695 5.76406 16.9859C5.07938 16.3023 5.07938 15.1977 5.76406 14.5141L11.8891 8.38906C12.5727 7.70547 13.6773 7.70547 14.3609 8.38906L17.5 11.5227L23.2641 5.76406C23.9477 5.07938 25.0523 5.07938 25.7359 5.76406C26.4195 6.44766 26.4195 7.55234 25.7359 8.23594L18.7359 15.2359Z" fill="white"/>
</svg>
