<svg width="28" height="28" viewBox="0 0 28 28" fill="none" xmlns="http://www.w3.org/2000/svg">
<path d="M26.25 4.375V7C26.25 9.41719 20.7648 11.375 14 11.375C7.23516 11.375 1.75 9.41719 1.75 7V4.375C1.75 1.95891 7.23516 0 14 0C20.7648 0 26.25 1.95891 26.25 4.375ZM23.2531 11.7414C24.3414 11.3367 25.4352 10.8172 26.25 10.1773V15.75C26.25 18.1672 20.7648 20.125 14 20.125C7.23516 20.125 1.75 18.1672 1.75 15.75V10.1773C2.56648 10.8172 3.61047 11.3367 4.74961 11.7414C7.20016 12.6164 10.4727 13.125 14 13.125C17.5273 13.125 20.7977 12.6164 23.2531 11.7414ZM4.74961 20.4914C7.20016 21.3664 10.4727 21.875 14 21.875C17.5273 21.875 20.7977 21.3664 23.2531 20.4914C24.3414 20.0867 25.4352 19.5672 26.25 18.9273V23.625C26.25 26.0422 20.7648 28 14 28C7.23516 28 1.75 26.0422 1.75 23.625V18.9273C2.56648 19.5672 3.61047 20.0867 4.74961 20.4914Z" fill="white"/>
</svg>
