<svg width="16" height="16" viewBox="0 0 16 16" fill="none" xmlns="http://www.w3.org/2000/svg">
<path d="M15 10.5V1.5C15 0.671562 14.3281 0 13.5 0H4C2.34312 0 1 1.34312 1 3V13C1 14.6569 2.34312 16 4 16H14C14.5522 16 15 15.5522 15 15.0281C15 14.6619 14.7935 14.3556 14.5 14.1812V11.6388C14.8062 11.3375 15 10.9438 15 10.5ZM5.47188 4H11.4719C11.775 4 12 4.225 12 4.5C12 4.775 11.775 5 11.5 5H5.47188C5.225 5 5 4.775 5 4.5C5 4.225 5.225 4 5.47188 4ZM5.47188 6H11.4719C11.775 6 12 6.225 12 6.5C12 6.775 11.775 7 11.5 7H5.47188C5.225 7 5 6.775 5 6.5C5 6.225 5.225 6 5.47188 6ZM13 14H4C3.44781 14 3 13.5522 3 13C3 12.4478 3.44781 12 4 12H13V14Z" fill="#F7F7F7"/>
</svg>
