<svg width="16" height="16" viewBox="0 0 16 16" fill="none" xmlns="http://www.w3.org/2000/svg">
<g clip-path="url(#clip0_2_23)">
<path d="M10.5889 5.06389L14.5806 5.65278C14.9111 5.7 15.1889 5.93333 15.2945 6.25278C15.4 6.575 15.3139 6.925 15.075 7.16389L12.1806 10.0028L12.8639 14.075C12.9195 14.4083 12.7833 14.7472 12.5056 14.9444C12.2306 15.1417 11.8667 15.1667 11.5695 15.0083L8.00279 13.1056L4.4389 15.0083C4.1389 15.1667 3.77501 15.1417 3.50001 14.9444C3.22501 14.7472 3.08612 14.4083 3.14445 14.075L3.82779 10.0028L0.932785 7.16389C0.693618 6.925 0.608618 6.575 0.713618 6.25278C0.818341 5.93333 1.09528 5.7 1.42834 5.65278L5.41667 5.06389L7.20556 1.38805C7.35278 1.08205 7.6639 0.887802 8.00279 0.887802C8.34445 0.887802 8.65556 1.08205 8.80278 1.38805L10.5889 5.06389Z" fill="white"/>
</g>
<defs>
<clipPath id="clip0_2_23">
<rect width="16" height="16" fill="white"/>
</clipPath>
</defs>
</svg>
