<svg width="48" height="48" viewBox="0 0 48 48" fill="none" xmlns="http://www.w3.org/2000/svg">
<g filter="url(#filter0_d_2_590)">
<path d="M36 0H12C5.37258 0 0 5.37258 0 12V36C0 42.6274 5.37258 48 12 48H36C42.6274 48 48 42.6274 48 36V12C48 5.37258 42.6274 0 36 0Z" fill="#A70038"/>
</g>
<g clip-path="url(#clip0_2_590)">
<path d="M24 16.5C19.86 16.5 16.5 19.86 16.5 24C16.5 28.14 19.86 31.5 24 31.5C28.14 31.5 31.5 28.14 31.5 24C31.5 19.86 28.14 16.5 24 16.5ZM22.125 27.375V20.625L27.375 24L22.125 27.375Z" fill="white"/>
</g>
<defs>
<filter id="filter0_d_2_590" x="0" y="0" width="48" height="48" filterUnits="userSpaceOnUse" color-interpolation-filters="sRGB">
<feFlood flood-opacity="0" result="BackgroundImageFix"/>
<feColorMatrix in="SourceAlpha" type="matrix" values="0 0 0 0 0 0 0 0 0 0 0 0 0 0 0 0 0 0 127 0" result="hardAlpha"/>
<feOffset/>
<feComposite in2="hardAlpha" operator="out"/>
<feColorMatrix type="matrix" values="0 0 0 0 0 0 0 0 0 0 0 0 0 0 0 0 0 0 0.08 0"/>
<feBlend mode="normal" in2="BackgroundImageFix" result="effect1_dropShadow_2_590"/>
<feBlend mode="normal" in="SourceGraphic" in2="effect1_dropShadow_2_590" result="shape"/>
</filter>
<clipPath id="clip0_2_590">
<rect width="18" height="18" fill="white" transform="translate(15 15)"/>
</clipPath>
</defs>
</svg>
