<svg width="88" height="88" viewBox="0 0 88 88" fill="none" xmlns="http://www.w3.org/2000/svg">
<g filter="url(#filter0_d_2_119)">
<path d="M75.5 0.5H12.5C5.87258 0.5 0.5 5.87258 0.5 12.5V75.5C0.5 82.1274 5.87258 87.5 12.5 87.5H75.5C82.1274 87.5 87.5 82.1274 87.5 75.5V12.5C87.5 5.87258 82.1274 0.5 75.5 0.5Z" fill="#161616" fill-opacity="0.3" shape-rendering="crispEdges"/>
<path d="M75.5 0.5H12.5C5.87258 0.5 0.5 5.87258 0.5 12.5V75.5C0.5 82.1274 5.87258 87.5 12.5 87.5H75.5C82.1274 87.5 87.5 82.1274 87.5 75.5V12.5C87.5 5.87258 82.1274 0.5 75.5 0.5Z" stroke="#2B2B2B" shape-rendering="crispEdges"/>
</g>
<defs>
<filter id="filter0_d_2_119" x="0" y="0" width="88" height="88" filterUnits="userSpaceOnUse" color-interpolation-filters="sRGB">
<feFlood flood-opacity="0" result="BackgroundImageFix"/>
<feColorMatrix in="SourceAlpha" type="matrix" values="0 0 0 0 0 0 0 0 0 0 0 0 0 0 0 0 0 0 127 0" result="hardAlpha"/>
<feOffset/>
<feComposite in2="hardAlpha" operator="out"/>
<feColorMatrix type="matrix" values="0 0 0 0 0 0 0 0 0 0 0 0 0 0 0 0 0 0 0.08 0"/>
<feBlend mode="normal" in2="BackgroundImageFix" result="effect1_dropShadow_2_119"/>
<feBlend mode="normal" in="SourceGraphic" in2="effect1_dropShadow_2_119" result="shape"/>
</filter>
</defs>
</svg>
