<svg width="151" height="40" viewBox="0 0 151 40" fill="none" xmlns="http://www.w3.org/2000/svg">
<g filter="url(#filter0_d_2_11)">
<path d="M138.5 0.5H12.5C5.87258 0.5 0.5 5.87258 0.5 12.5V27.5C0.5 34.1274 5.87258 39.5 12.5 39.5H138.5C145.127 39.5 150.5 34.1274 150.5 27.5V12.5C150.5 5.87258 145.127 0.5 138.5 0.5Z" fill="#161616"/>
<path d="M138.5 0.5H12.5C5.87258 0.5 0.5 5.87258 0.5 12.5V27.5C0.5 34.1274 5.87258 39.5 12.5 39.5H138.5C145.127 39.5 150.5 34.1274 150.5 27.5V12.5C150.5 5.87258 145.127 0.5 138.5 0.5Z" stroke="#2B2B2B"/>
</g>
<defs>
<filter id="filter0_d_2_11" x="0" y="0" width="151" height="40" filterUnits="userSpaceOnUse" color-interpolation-filters="sRGB">
<feFlood flood-opacity="0" result="BackgroundImageFix"/>
<feColorMatrix in="SourceAlpha" type="matrix" values="0 0 0 0 0 0 0 0 0 0 0 0 0 0 0 0 0 0 127 0" result="hardAlpha"/>
<feOffset/>
<feComposite in2="hardAlpha" operator="out"/>
<feColorMatrix type="matrix" values="0 0 0 0 0 0 0 0 0 0 0 0 0 0 0 0 0 0 0.08 0"/>
<feBlend mode="normal" in2="BackgroundImageFix" result="effect1_dropShadow_2_11"/>
<feBlend mode="normal" in="SourceGraphic" in2="effect1_dropShadow_2_11" result="shape"/>
</filter>
</defs>
</svg>
