<svg width="56" height="14" viewBox="0 0 56 14" fill="none" xmlns="http://www.w3.org/2000/svg">
<mask id="mask0_2_181" style="mask-type:luminance" maskUnits="userSpaceOnUse" x="0" y="0" width="56" height="14">
<path d="M56 0H0V14H56V0Z" fill="white"/>
</mask>
<g mask="url(#mask0_2_181)">
<path d="M5.234 3.833C6.07 3.833 6.79233 3.99067 7.401 4.306C8.017 4.614 8.48633 5.05767 8.809 5.637C9.139 6.21633 9.304 6.89833 9.304 7.683C9.304 8.46767 9.139 9.14967 8.809 9.729C8.48633 10.301 8.017 10.741 7.401 11.049C6.79233 11.3497 6.07 11.5 5.234 11.5H2.847V3.833H5.234ZM5.234 10.675C6.224 10.675 6.97933 10.4147 7.5 9.894C8.02067 9.366 8.281 8.629 8.281 7.683C8.281 6.72967 8.017 5.98533 7.489 5.45C6.96833 4.91467 6.21667 4.647 5.234 4.647H3.848V10.675H5.234ZM16.1243 8.255C16.1243 8.44567 16.1133 8.64733 16.0913 8.86H11.2733C11.31 9.454 11.5117 9.91967 11.8783 10.257C12.2523 10.587 12.7033 10.752 13.2313 10.752C13.664 10.752 14.0233 10.653 14.3093 10.455C14.6027 10.2497 14.808 9.97833 14.9253 9.641H16.0033C15.842 10.2203 15.5193 10.6933 15.0353 11.06C14.5513 11.4193 13.95 11.599 13.2313 11.599C12.6593 11.599 12.146 11.4707 11.6913 11.214C11.244 10.9573 10.892 10.5943 10.6353 10.125C10.3787 9.64833 10.2503 9.09833 10.2503 8.475C10.2503 7.85167 10.375 7.30533 10.6243 6.836C10.8737 6.36667 11.222 6.00733 11.6693 5.758C12.124 5.50133 12.6447 5.373 13.2313 5.373C13.8033 5.373 14.3093 5.49767 14.7493 5.747C15.1893 5.99633 15.5267 6.341 15.7613 6.781C16.0033 7.21367 16.1243 7.705 16.1243 8.255ZM15.0903 8.046C15.0903 7.66467 15.006 7.33833 14.8373 7.067C14.6687 6.78833 14.4377 6.57933 14.1443 6.44C13.8583 6.29333 13.5393 6.22 13.1873 6.22C12.6813 6.22 12.2487 6.38133 11.8893 6.704C11.5373 7.02667 11.3357 7.474 11.2843 8.046H15.0903ZM19.5796 11.599C19.1176 11.599 18.7033 11.522 18.3366 11.368C17.97 11.2067 17.6803 10.9867 17.4676 10.708C17.255 10.422 17.1376 10.0957 17.1156 9.729H18.1496C18.179 10.0297 18.3183 10.2753 18.5676 10.466C18.8243 10.6567 19.158 10.752 19.5686 10.752C19.95 10.752 20.2506 10.6677 20.4706 10.499C20.6906 10.3303 20.8006 10.1177 20.8006 9.861C20.8006 9.597 20.6833 9.40267 20.4486 9.278C20.214 9.146 19.851 9.01767 19.3596 8.893C18.9123 8.77567 18.5456 8.65833 18.2596 8.541C17.981 8.41633 17.739 8.23667 17.5336 8.002C17.3356 7.76 17.2366 7.44467 17.2366 7.056C17.2366 6.748 17.3283 6.46567 17.5116 6.209C17.695 5.95233 17.9553 5.75067 18.2926 5.604C18.63 5.45 19.015 5.373 19.4476 5.373C20.115 5.373 20.654 5.54167 21.0646 5.879C21.4753 6.21633 21.6953 6.67833 21.7246 7.265H20.7236C20.7016 6.94967 20.5733 6.69667 20.3386 6.506C20.1113 6.31533 19.8033 6.22 19.4146 6.22C19.0553 6.22 18.7693 6.297 18.5566 6.451C18.344 6.605 18.2376 6.80667 18.2376 7.056C18.2376 7.254 18.3 7.419 18.4246 7.551C18.5566 7.67567 18.718 7.77833 18.9086 7.859C19.1066 7.93233 19.378 8.01667 19.7226 8.112C20.1553 8.22933 20.5073 8.34667 20.7786 8.464C21.05 8.574 21.281 8.74267 21.4716 8.97C21.6696 9.19733 21.7723 9.49433 21.7796 9.861C21.7796 10.191 21.688 10.488 21.5046 10.752C21.3213 11.016 21.061 11.225 20.7236 11.379C20.3936 11.5257 20.0123 11.599 19.5796 11.599ZM22.8187 8.475C22.8187 7.85167 22.9434 7.309 23.1927 6.847C23.442 6.37767 23.7867 6.01467 24.2267 5.758C24.674 5.50133 25.1837 5.373 25.7557 5.373C26.4964 5.373 27.105 5.55267 27.5817 5.912C28.0657 6.27133 28.3847 6.77 28.5387 7.408H27.4607C27.358 7.04133 27.1564 6.75167 26.8557 6.539C26.5624 6.32633 26.1957 6.22 25.7557 6.22C25.1837 6.22 24.7217 6.418 24.3697 6.814C24.0177 7.20267 23.8417 7.75633 23.8417 8.475C23.8417 9.201 24.0177 9.762 24.3697 10.158C24.7217 10.554 25.1837 10.752 25.7557 10.752C26.1957 10.752 26.5624 10.6493 26.8557 10.444C27.149 10.2387 27.3507 9.94533 27.4607 9.564H28.5387C28.3774 10.18 28.0547 10.675 27.5707 11.049C27.0867 11.4157 26.4817 11.599 25.7557 11.599C25.1837 11.599 24.674 11.4707 24.2267 11.214C23.7867 10.9573 23.442 10.5943 23.1927 10.125C22.9434 9.65567 22.8187 9.10567 22.8187 8.475ZM35.2203 5.472V11.5H34.2193V10.609C34.0287 10.917 33.761 11.159 33.4163 11.335C33.079 11.5037 32.705 11.588 32.2943 11.588C31.825 11.588 31.4033 11.4927 31.0293 11.302C30.6553 11.104 30.3583 10.8107 30.1383 10.422C29.9257 10.0333 29.8193 9.56033 29.8193 9.003V5.472H30.8093V8.871C30.8093 9.465 30.9597 9.92333 31.2603 10.246C31.561 10.5613 31.9717 10.719 32.4923 10.719C33.0277 10.719 33.4493 10.554 33.7573 10.224C34.0653 9.894 34.2193 9.41367 34.2193 8.783V5.472H35.2203ZM37.9115 6.594C38.1168 6.23467 38.4175 5.94133 38.8135 5.714C39.2095 5.48667 39.6605 5.373 40.1665 5.373C40.7091 5.373 41.1968 5.50133 41.6295 5.758C42.0621 6.01467 42.4031 6.37767 42.6525 6.847C42.9018 7.309 43.0265 7.848 43.0265 8.464C43.0265 9.07267 42.9018 9.61533 42.6525 10.092C42.4031 10.5687 42.0585 10.939 41.6185 11.203C41.1858 11.467 40.7018 11.599 40.1665 11.599C39.6458 11.599 39.1875 11.4853 38.7915 11.258C38.4028 11.0307 38.1095 10.741 37.9115 10.389V11.5H36.9105V3.36H37.9115V6.594ZM42.0035 8.464C42.0035 8.00933 41.9118 7.61333 41.7285 7.276C41.5451 6.93867 41.2958 6.682 40.9805 6.506C40.6725 6.33 40.3315 6.242 39.9575 6.242C39.5908 6.242 39.2498 6.33367 38.9345 6.517C38.6265 6.693 38.3771 6.95333 38.1865 7.298C38.0031 7.63533 37.9115 8.02767 37.9115 8.475C37.9115 8.92967 38.0031 9.32933 38.1865 9.674C38.3771 10.0113 38.6265 10.2717 38.9345 10.455C39.2498 10.631 39.5908 10.719 39.9575 10.719C40.3315 10.719 40.6725 10.631 40.9805 10.455C41.2958 10.2717 41.5451 10.0113 41.7285 9.674C41.9118 9.32933 42.0035 8.926 42.0035 8.464ZM45.3451 6.451C45.5211 6.10633 45.7704 5.83867 46.0931 5.648C46.4231 5.45733 46.8227 5.362 47.2921 5.362V6.396H47.0281C45.9061 6.396 45.3451 7.00467 45.3451 8.222V11.5H44.3441V5.472H45.3451V6.451ZM48.0736 8.464C48.0736 7.848 48.1983 7.309 48.4476 6.847C48.6969 6.37767 49.0379 6.01467 49.4706 5.758C49.9106 5.50133 50.3983 5.373 50.9336 5.373C51.4616 5.373 51.9199 5.48667 52.3086 5.714C52.6973 5.94133 52.9869 6.22733 53.1776 6.572V5.472H54.1896V11.5H53.1776V10.378C52.9796 10.73 52.6826 11.0233 52.2866 11.258C51.8979 11.4853 51.4433 11.599 50.9226 11.599C50.3873 11.599 49.9033 11.467 49.4706 11.203C49.0379 10.939 48.6969 10.5687 48.4476 10.092C48.1983 9.61533 48.0736 9.07267 48.0736 8.464ZM53.1776 8.475C53.1776 8.02033 53.0859 7.62433 52.9026 7.287C52.7193 6.94967 52.4699 6.693 52.1546 6.517C51.8466 6.33367 51.5056 6.242 51.1316 6.242C50.7576 6.242 50.4166 6.33 50.1086 6.506C49.8006 6.682 49.5549 6.93867 49.3716 7.276C49.1883 7.61333 49.0966 8.00933 49.0966 8.464C49.0966 8.926 49.1883 9.32933 49.3716 9.674C49.5549 10.0113 49.8006 10.2717 50.1086 10.455C50.4166 10.631 50.7576 10.719 51.1316 10.719C51.5056 10.719 51.8466 10.631 52.1546 10.455C52.4699 10.2717 52.7193 10.0113 52.9026 9.674C53.0859 9.32933 53.1776 8.92967 53.1776 8.475Z" fill="white"/>
</g>
</svg>
