<svg width="34" height="16" viewBox="0 0 34 16" fill="none" xmlns="http://www.w3.org/2000/svg">
<mask id="mask0_131_101" style="mask-type:luminance" maskUnits="userSpaceOnUse" x="0" y="0" width="34" height="16">
<path d="M34 0H0V16H34V0Z" fill="white"/>
</mask>
<g mask="url(#mask0_131_101)">
<path d="M15.408 4.196V12.5H14.316V6.308L11.556 12.5H10.788L8.016 6.296V12.5H6.924V4.196H8.1L11.172 11.06L14.244 4.196H15.408ZM20.9319 12.5L18.3519 9.596V12.5H17.2599V3.62H18.3519V8.84L20.8839 5.924H22.4079L19.3119 9.2L22.4199 12.5H20.9319ZM24.7677 6.824V10.7C24.7677 11.02 24.8357 11.248 24.9717 11.384C25.1077 11.512 25.3437 11.576 25.6797 11.576H26.4837V12.5H25.4997C24.8917 12.5 24.4357 12.36 24.1317 12.08C23.8277 11.8 23.6757 11.34 23.6757 10.7V6.824H22.8237V5.924H23.6757V4.268H24.7677V5.924H26.4837V6.824H24.7677Z" fill="white"/>
</g>
</svg>
