<svg width="66" height="20" viewBox="0 0 66 20" fill="none" xmlns="http://www.w3.org/2000/svg">
<mask id="mask0_2_86" style="mask-type:luminance" maskUnits="userSpaceOnUse" x="0" y="0" width="66" height="20">
<path d="M66 0H0V20H66V0Z" fill="white"/>
</mask>
<g mask="url(#mask0_2_86)">
<path d="M7.824 15.02H2.96L2.064 17.5H0.528L4.56 6.412H6.24L10.256 17.5H8.72L7.824 15.02ZM7.408 13.836L5.392 8.204L3.376 13.836H7.408ZM13.4693 5.66V17.5H12.0133V5.66H13.4693ZM23.9508 12.78C23.9508 13.0573 23.9348 13.3507 23.9028 13.66H16.8948C16.9481 14.524 17.2414 15.2013 17.7748 15.692C18.3188 16.172 18.9748 16.412 19.7428 16.412C20.3721 16.412 20.8948 16.268 21.3108 15.98C21.7374 15.6813 22.0361 15.2867 22.2068 14.796H23.7748C23.5401 15.6387 23.0708 16.3267 22.3668 16.86C21.6628 17.3827 20.7881 17.644 19.7428 17.644C18.9108 17.644 18.1641 17.4573 17.5028 17.084C16.8521 16.7107 16.3401 16.1827 15.9668 15.5C15.5934 14.8067 15.4068 14.0067 15.4068 13.1C15.4068 12.1933 15.5881 11.3987 15.9508 10.716C16.3134 10.0333 16.8201 9.51067 17.4708 9.148C18.1321 8.77467 18.8894 8.588 19.7428 8.588C20.5748 8.588 21.3108 8.76933 21.9508 9.132C22.5908 9.49467 23.0814 9.996 23.4228 10.636C23.7748 11.2653 23.9508 11.98 23.9508 12.78ZM22.4468 12.476C22.4468 11.9213 22.3241 11.4467 22.0788 11.052C21.8334 10.6467 21.4974 10.3427 21.0708 10.14C20.6548 9.92667 20.1908 9.82 19.6788 9.82C18.9428 9.82 18.3134 10.0547 17.7908 10.524C17.2788 10.9933 16.9854 11.644 16.9108 12.476H22.4468ZM30.4486 17.5L28.3686 14.236L26.3686 17.5H24.8486L27.6806 13.148L24.8486 8.732H26.4966L28.5766 11.98L30.5606 8.732H32.0806L29.2646 13.068L32.0966 17.5H30.4486Z" fill="white"/>
</g>
</svg>
