<svg width="50" height="14" viewBox="0 0 50 14" fill="none" xmlns="http://www.w3.org/2000/svg">
<mask id="mask0_2_137" style="mask-type:luminance" maskUnits="userSpaceOnUse" x="0" y="0" width="50" height="14">
<path d="M50 0H0V14H50V0Z" fill="white"/>
</mask>
<g mask="url(#mask0_2_137)">
<path d="M12.408 4.196V12.5H11.316V6.308L8.556 12.5H7.788L5.016 6.296V12.5H3.924V4.196H5.1L8.172 11.06L11.244 4.196H12.408ZM13.8519 9.188C13.8519 8.516 13.9879 7.928 14.2599 7.424C14.5319 6.912 14.9039 6.516 15.3759 6.236C15.8559 5.956 16.3879 5.816 16.9719 5.816C17.5479 5.816 18.0479 5.94 18.4719 6.188C18.8959 6.436 19.2119 6.748 19.4199 7.124V5.924H20.5239V12.5H19.4199V11.276C19.2039 11.66 18.8799 11.98 18.4479 12.236C18.0239 12.484 17.5279 12.608 16.9599 12.608C16.3759 12.608 15.8479 12.464 15.3759 12.176C14.9039 11.888 14.5319 11.484 14.2599 10.964C13.9879 10.444 13.8519 9.852 13.8519 9.188ZM19.4199 9.2C19.4199 8.704 19.3199 8.272 19.1199 7.904C18.9199 7.536 18.6479 7.256 18.3039 7.064C17.9679 6.864 17.5959 6.764 17.1879 6.764C16.7799 6.764 16.4079 6.86 16.0719 7.052C15.7359 7.244 15.4679 7.524 15.2679 7.892C15.0679 8.26 14.9679 8.692 14.9679 9.188C14.9679 9.692 15.0679 10.132 15.2679 10.508C15.4679 10.876 15.7359 11.16 16.0719 11.36C16.4079 11.552 16.7799 11.648 17.1879 11.648C17.5959 11.648 17.9679 11.552 18.3039 11.36C18.6479 11.16 18.9199 10.876 19.1199 10.508C19.3199 10.132 19.4199 9.696 19.4199 9.2ZM21.9613 9.2C21.9613 8.52 22.0973 7.928 22.3693 7.424C22.6413 6.912 23.0173 6.516 23.4973 6.236C23.9853 5.956 24.5413 5.816 25.1653 5.816C25.9733 5.816 26.6373 6.012 27.1573 6.404C27.6853 6.796 28.0333 7.34 28.2013 8.036H27.0253C26.9133 7.636 26.6933 7.32 26.3653 7.088C26.0453 6.856 25.6453 6.74 25.1653 6.74C24.5413 6.74 24.0373 6.956 23.6533 7.388C23.2693 7.812 23.0773 8.416 23.0773 9.2C23.0773 9.992 23.2693 10.604 23.6533 11.036C24.0373 11.468 24.5413 11.684 25.1653 11.684C25.6453 11.684 26.0453 11.572 26.3653 11.348C26.6853 11.124 26.9053 10.804 27.0253 10.388H28.2013C28.0253 11.06 27.6733 11.6 27.1453 12.008C26.6173 12.408 25.9573 12.608 25.1653 12.608C24.5413 12.608 23.9853 12.468 23.4973 12.188C23.0173 11.908 22.6413 11.512 22.3693 11C22.0973 10.488 21.9613 9.888 21.9613 9.2ZM32.9224 5.804C33.4184 5.804 33.8664 5.912 34.2664 6.128C34.6664 6.336 34.9784 6.652 35.2024 7.076C35.4344 7.5 35.5504 8.016 35.5504 8.624V12.5H34.4704V8.78C34.4704 8.124 34.3064 7.624 33.9784 7.28C33.6504 6.928 33.2024 6.752 32.6344 6.752C32.0584 6.752 31.5984 6.932 31.2544 7.292C30.9184 7.652 30.7504 8.176 30.7504 8.864V12.5H29.6584V3.62H30.7504V6.86C30.9664 6.524 31.2624 6.264 31.6384 6.08C32.0224 5.896 32.4504 5.804 32.9224 5.804ZM37.8982 4.856C37.6902 4.856 37.5142 4.784 37.3702 4.64C37.2262 4.496 37.1542 4.32 37.1542 4.112C37.1542 3.904 37.2262 3.728 37.3702 3.584C37.5142 3.44 37.6902 3.368 37.8982 3.368C38.0982 3.368 38.2662 3.44 38.4022 3.584C38.5462 3.728 38.6182 3.904 38.6182 4.112C38.6182 4.32 38.5462 4.496 38.4022 4.64C38.2662 4.784 38.0982 4.856 37.8982 4.856ZM38.4262 5.924V12.5H37.3342V5.924H38.4262ZM43.4913 5.804C44.2913 5.804 44.9393 6.048 45.4353 6.536C45.9313 7.016 46.1793 7.712 46.1793 8.624V12.5H45.0993V8.78C45.0993 8.124 44.9353 7.624 44.6073 7.28C44.2793 6.928 43.8313 6.752 43.2633 6.752C42.6873 6.752 42.2273 6.932 41.8833 7.292C41.5473 7.652 41.3793 8.176 41.3793 8.864V12.5H40.2873V5.924H41.3793V6.86C41.5953 6.524 41.8873 6.264 42.2553 6.08C42.6313 5.896 43.0433 5.804 43.4913 5.804Z" fill="white"/>
</g>
</svg>
