<svg width="48" height="16" viewBox="0 0 48 16" fill="none" xmlns="http://www.w3.org/2000/svg">
<mask id="mask0_131_107" style="mask-type:luminance" maskUnits="userSpaceOnUse" x="0" y="0" width="48" height="16">
<path d="M48 0H0V16H48V0Z" fill="white"/>
</mask>
<g mask="url(#mask0_131_107)">
<path d="M7.26 7.56C7.028 7.072 6.692 6.696 6.252 6.432C5.812 6.16 5.3 6.024 4.716 6.024C4.132 6.024 3.604 6.16 3.132 6.432C2.668 6.696 2.3 7.08 2.028 7.584C1.764 8.08 1.632 8.656 1.632 9.312C1.632 9.968 1.764 10.544 2.028 11.04C2.3 11.536 2.668 11.92 3.132 12.192C3.604 12.456 4.132 12.588 4.716 12.588C5.532 12.588 6.204 12.344 6.732 11.856C7.26 11.368 7.568 10.708 7.656 9.876H4.32V8.988H8.82V9.828C8.756 10.516 8.54 11.148 8.172 11.724C7.804 12.292 7.32 12.744 6.72 13.08C6.12 13.408 5.452 13.572 4.716 13.572C3.94 13.572 3.232 13.392 2.592 13.032C1.952 12.664 1.444 12.156 1.068 11.508C0.7 10.86 0.516 10.128 0.516 9.312C0.516 8.496 0.7 7.764 1.068 7.116C1.444 6.46 1.952 5.952 2.592 5.592C3.232 5.224 3.94 5.04 4.716 5.04C5.604 5.04 6.388 5.26 7.068 5.7C7.756 6.14 8.256 6.76 8.568 7.56H7.26ZM16.2638 9.96C16.2638 10.168 16.2518 10.388 16.2278 10.62H10.9718C11.0118 11.268 11.2318 11.776 11.6318 12.144C12.0398 12.504 12.5318 12.684 13.1078 12.684C13.5798 12.684 13.9718 12.576 14.2838 12.36C14.6038 12.136 14.8278 11.84 14.9558 11.472H16.1318C15.9558 12.104 15.6038 12.62 15.0758 13.02C14.5478 13.412 13.8918 13.608 13.1078 13.608C12.4838 13.608 11.9238 13.468 11.4278 13.188C10.9398 12.908 10.5558 12.512 10.2758 12C9.99584 11.48 9.85584 10.88 9.85584 10.2C9.85584 9.52 9.99184 8.924 10.2638 8.412C10.5358 7.9 10.9158 7.508 11.4038 7.236C11.8998 6.956 12.4678 6.816 13.1078 6.816C13.7318 6.816 14.2838 6.952 14.7638 7.224C15.2438 7.496 15.6118 7.872 15.8678 8.352C16.1318 8.824 16.2638 9.36 16.2638 9.96ZM15.1358 9.732C15.1358 9.316 15.0438 8.96 14.8598 8.664C14.6758 8.36 14.4238 8.132 14.1038 7.98C13.7918 7.82 13.4438 7.74 13.0598 7.74C12.5078 7.74 12.0358 7.916 11.6438 8.268C11.2598 8.62 11.0398 9.108 10.9838 9.732H15.1358ZM20.0333 13.608C19.5293 13.608 19.0773 13.524 18.6773 13.356C18.2773 13.18 17.9613 12.94 17.7293 12.636C17.4973 12.324 17.3693 11.968 17.3453 11.568H18.4733C18.5053 11.896 18.6573 12.164 18.9293 12.372C19.2093 12.58 19.5733 12.684 20.0213 12.684C20.4373 12.684 20.7653 12.592 21.0053 12.408C21.2453 12.224 21.3653 11.992 21.3653 11.712C21.3653 11.424 21.2373 11.212 20.9813 11.076C20.7253 10.932 20.3293 10.792 19.7933 10.656C19.3053 10.528 18.9053 10.4 18.5933 10.272C18.2893 10.136 18.0253 9.94 17.8013 9.684C17.5853 9.42 17.4773 9.076 17.4773 8.652C17.4773 8.316 17.5773 8.008 17.7773 7.728C17.9773 7.448 18.2613 7.228 18.6293 7.068C18.9973 6.9 19.4173 6.816 19.8893 6.816C20.6173 6.816 21.2053 7 21.6533 7.368C22.1013 7.736 22.3413 8.24 22.3733 8.88H21.2813C21.2573 8.536 21.1173 8.26 20.8613 8.052C20.6133 7.844 20.2773 7.74 19.8533 7.74C19.4613 7.74 19.1493 7.824 18.9173 7.992C18.6853 8.16 18.5693 8.38 18.5693 8.652C18.5693 8.868 18.6373 9.048 18.7733 9.192C18.9173 9.328 19.0933 9.44 19.3013 9.528C19.5173 9.608 19.8133 9.7 20.1893 9.804C20.6613 9.932 21.0453 10.06 21.3413 10.188C21.6373 10.308 21.8893 10.492 22.0973 10.74C22.3133 10.988 22.4253 11.312 22.4333 11.712C22.4333 12.072 22.3333 12.396 22.1333 12.684C21.9333 12.972 21.6493 13.2 21.2813 13.368C20.9213 13.528 20.5053 13.608 20.0333 13.608ZM25.3068 7.824V11.7C25.3068 12.02 25.3748 12.248 25.5108 12.384C25.6468 12.512 25.8828 12.576 26.2188 12.576H27.0228V13.5H26.0388C25.4308 13.5 24.9748 13.36 24.6708 13.08C24.3668 12.8 24.2148 12.34 24.2148 11.7V7.824H23.3628V6.924H24.2148V5.268H25.3068V6.924H27.0228V7.824H25.3068ZM27.9379 10.188C27.9379 9.516 28.0739 8.928 28.3459 8.424C28.6179 7.912 28.9899 7.516 29.4619 7.236C29.9419 6.956 30.4739 6.816 31.0579 6.816C31.6339 6.816 32.1339 6.94 32.5579 7.188C32.9819 7.436 33.2979 7.748 33.5059 8.124V6.924H34.6099V13.5H33.5059V12.276C33.2899 12.66 32.9659 12.98 32.5339 13.236C32.1099 13.484 31.6139 13.608 31.0459 13.608C30.4619 13.608 29.9339 13.464 29.4619 13.176C28.9899 12.888 28.6179 12.484 28.3459 11.964C28.0739 11.444 27.9379 10.852 27.9379 10.188ZM33.5059 10.2C33.5059 9.704 33.4059 9.272 33.2059 8.904C33.0059 8.536 32.7339 8.256 32.3899 8.064C32.0539 7.864 31.6819 7.764 31.2739 7.764C30.8659 7.764 30.4939 7.86 30.1579 8.052C29.8219 8.244 29.5539 8.524 29.3539 8.892C29.1539 9.26 29.0539 9.692 29.0539 10.188C29.0539 10.692 29.1539 11.132 29.3539 11.508C29.5539 11.876 29.8219 12.16 30.1579 12.36C30.4939 12.552 30.8659 12.648 31.2739 12.648C31.6819 12.648 32.0539 12.552 32.3899 12.36C32.7339 12.16 33.0059 11.876 33.2059 11.508C33.4059 11.132 33.5059 10.696 33.5059 10.2ZM29.7259 6.216C29.7819 5.808 29.9139 5.496 30.1219 5.28C30.3379 5.064 30.6059 4.956 30.9259 4.956C31.0779 4.956 31.2059 4.984 31.3099 5.04C31.4219 5.088 31.5539 5.16 31.7059 5.256C31.8179 5.336 31.9179 5.4 32.0059 5.448C32.0939 5.488 32.1899 5.508 32.2939 5.508C32.4299 5.508 32.5459 5.464 32.6419 5.376C32.7379 5.288 32.7979 5.16 32.8219 4.992H33.4459C33.3979 5.392 33.2659 5.7 33.0499 5.916C32.8339 6.132 32.5659 6.24 32.2459 6.24C32.0939 6.24 31.9579 6.216 31.8379 6.168C31.7259 6.112 31.5979 6.032 31.4539 5.928C31.3259 5.848 31.2219 5.788 31.1419 5.748C31.0699 5.708 30.9819 5.688 30.8779 5.688C30.7419 5.688 30.6259 5.732 30.5299 5.82C30.4419 5.908 30.3859 6.04 30.3619 6.216H29.7259ZM39.3233 13.608C38.7073 13.608 38.1473 13.468 37.6433 13.188C37.1473 12.908 36.7553 12.512 36.4673 12C36.1873 11.48 36.0473 10.88 36.0473 10.2C36.0473 9.528 36.1913 8.936 36.4793 8.424C36.7753 7.904 37.1753 7.508 37.6793 7.236C38.1833 6.956 38.7473 6.816 39.3713 6.816C39.9953 6.816 40.5593 6.956 41.0633 7.236C41.5673 7.508 41.9633 7.9 42.2513 8.412C42.5473 8.924 42.6953 9.52 42.6953 10.2C42.6953 10.88 42.5433 11.48 42.2393 12C41.9433 12.512 41.5393 12.908 41.0273 13.188C40.5153 13.468 39.9473 13.608 39.3233 13.608ZM39.3233 12.648C39.7153 12.648 40.0833 12.556 40.4273 12.372C40.7713 12.188 41.0473 11.912 41.2553 11.544C41.4713 11.176 41.5793 10.728 41.5793 10.2C41.5793 9.672 41.4753 9.224 41.2673 8.856C41.0593 8.488 40.7873 8.216 40.4513 8.04C40.1153 7.856 39.7513 7.764 39.3593 7.764C38.9593 7.764 38.5913 7.856 38.2553 8.04C37.9273 8.216 37.6633 8.488 37.4633 8.856C37.2633 9.224 37.1633 9.672 37.1633 10.2C37.1633 10.736 37.2593 11.188 37.4513 11.556C37.6513 11.924 37.9153 12.2 38.2433 12.384C38.5713 12.56 38.9313 12.648 39.3233 12.648Z" fill="white"/>
</g>
</svg>
