<svg width="38" height="16" viewBox="0 0 38 16" fill="none" xmlns="http://www.w3.org/2000/svg">
<mask id="mask0_131_95" style="mask-type:luminance" maskUnits="userSpaceOnUse" x="0" y="0" width="38" height="16">
<path d="M38 0H0V16H38V0Z" fill="white"/>
</mask>
<g mask="url(#mask0_131_95)">
<path d="M3.576 14.084C3.024 14.084 2.528 13.988 2.088 13.796C1.656 13.596 1.316 13.324 1.068 12.98C0.82 12.628 0.692 12.224 0.684 11.768H1.848C1.888 12.16 2.048 12.492 2.328 12.764C2.616 13.028 3.032 13.16 3.576 13.16C4.096 13.16 4.504 13.032 4.8 12.776C5.104 12.512 5.256 12.176 5.256 11.768C5.256 11.448 5.168 11.188 4.992 10.988C4.816 10.788 4.596 10.636 4.332 10.532C4.068 10.428 3.712 10.316 3.264 10.196C2.712 10.052 2.268 9.908 1.932 9.764C1.604 9.62 1.32 9.396 1.08 9.092C0.848 8.78 0.732 8.364 0.732 7.844C0.732 7.388 0.848 6.984 1.08 6.632C1.312 6.28 1.636 6.008 2.052 5.816C2.476 5.624 2.96 5.528 3.504 5.528C4.288 5.528 4.928 5.724 5.424 6.116C5.928 6.508 6.212 7.028 6.276 7.676H5.076C5.036 7.356 4.868 7.076 4.572 6.836C4.276 6.588 3.884 6.464 3.396 6.464C2.94 6.464 2.568 6.584 2.28 6.824C1.992 7.056 1.848 7.384 1.848 7.808C1.848 8.112 1.932 8.36 2.1 8.552C2.276 8.744 2.488 8.892 2.736 8.996C2.992 9.092 3.348 9.204 3.804 9.332C4.356 9.484 4.8 9.636 5.136 9.788C5.472 9.932 5.76 10.16 6 10.472C6.24 10.776 6.36 11.192 6.36 11.72C6.36 12.128 6.252 12.512 6.036 12.872C5.82 13.232 5.5 13.524 5.076 13.748C4.652 13.972 4.152 14.084 3.576 14.084ZM7.55897 10.688C7.55897 10.016 7.69497 9.428 7.96697 8.924C8.23897 8.412 8.61097 8.016 9.08297 7.736C9.56297 7.456 10.095 7.316 10.679 7.316C11.255 7.316 11.755 7.44 12.179 7.688C12.603 7.936 12.919 8.248 13.127 8.624V7.424H14.231V14H13.127V12.776C12.911 13.16 12.587 13.48 12.155 13.736C11.731 13.984 11.235 14.108 10.667 14.108C10.083 14.108 9.55497 13.964 9.08297 13.676C8.61097 13.388 8.23897 12.984 7.96697 12.464C7.69497 11.944 7.55897 11.352 7.55897 10.688ZM13.127 10.7C13.127 10.204 13.027 9.772 12.827 9.404C12.627 9.036 12.355 8.756 12.011 8.564C11.675 8.364 11.303 8.264 10.895 8.264C10.487 8.264 10.115 8.36 9.77897 8.552C9.44297 8.744 9.17497 9.024 8.97497 9.392C8.77497 9.76 8.67497 10.192 8.67497 10.688C8.67497 11.192 8.77497 11.632 8.97497 12.008C9.17497 12.376 9.44297 12.66 9.77897 12.86C10.115 13.052 10.487 13.148 10.895 13.148C11.303 13.148 11.675 13.052 12.011 12.86C12.355 12.66 12.627 12.376 12.827 12.008C13.027 11.632 13.127 11.196 13.127 10.7ZM21.9083 7.424V14H20.8163V13.028C20.6083 13.364 20.3163 13.628 19.9403 13.82C19.5723 14.004 19.1643 14.096 18.7163 14.096C18.2043 14.096 17.7443 13.992 17.3363 13.784C16.9283 13.568 16.6043 13.248 16.3643 12.824C16.1323 12.4 16.0163 11.884 16.0163 11.276V7.424H17.0963V11.132C17.0963 11.78 17.2603 12.28 17.5883 12.632C17.9163 12.976 18.3643 13.148 18.9323 13.148C19.5163 13.148 19.9763 12.968 20.3123 12.608C20.6483 12.248 20.8163 11.724 20.8163 11.036V7.424H21.9083ZM20.1683 5.564L17.6123 6.932V6.116L20.1683 4.616V5.564ZM23.3441 10.688C23.3441 10.016 23.4801 9.428 23.7521 8.924C24.0241 8.412 24.3961 8.016 24.8681 7.736C25.3481 7.456 25.8841 7.316 26.4761 7.316C26.9881 7.316 27.4641 7.436 27.9041 7.676C28.3441 7.908 28.6801 8.216 28.9121 8.6V5.12H30.0161V14H28.9121V12.764C28.6961 13.156 28.3761 13.48 27.9521 13.736C27.5281 13.984 27.0321 14.108 26.4641 14.108C25.8801 14.108 25.3481 13.964 24.8681 13.676C24.3961 13.388 24.0241 12.984 23.7521 12.464C23.4801 11.944 23.3441 11.352 23.3441 10.688ZM28.9121 10.7C28.9121 10.204 28.8121 9.772 28.6121 9.404C28.4121 9.036 28.1401 8.756 27.7961 8.564C27.4601 8.364 27.0881 8.264 26.6801 8.264C26.2721 8.264 25.9001 8.36 25.5641 8.552C25.2281 8.744 24.9601 9.024 24.7601 9.392C24.5601 9.76 24.4601 10.192 24.4601 10.688C24.4601 11.192 24.5601 11.632 24.7601 12.008C24.9601 12.376 25.2281 12.66 25.5641 12.86C25.9001 13.052 26.2721 13.148 26.6801 13.148C27.0881 13.148 27.4601 13.052 27.7961 12.86C28.1401 12.66 28.4121 12.376 28.6121 12.008C28.8121 11.632 28.9121 11.196 28.9121 10.7ZM37.8615 10.46C37.8615 10.668 37.8495 10.888 37.8255 11.12H32.5695C32.6095 11.768 32.8295 12.276 33.2295 12.644C33.6375 13.004 34.1295 13.184 34.7055 13.184C35.1775 13.184 35.5695 13.076 35.8815 12.86C36.2015 12.636 36.4255 12.34 36.5535 11.972H37.7295C37.5535 12.604 37.2015 13.12 36.6735 13.52C36.1455 13.912 35.4895 14.108 34.7055 14.108C34.0815 14.108 33.5215 13.968 33.0255 13.688C32.5375 13.408 32.1535 13.012 31.8735 12.5C31.5935 11.98 31.4535 11.38 31.4535 10.7C31.4535 10.02 31.5895 9.424 31.8615 8.912C32.1335 8.4 32.5135 8.008 33.0015 7.736C33.4975 7.456 34.0655 7.316 34.7055 7.316C35.3295 7.316 35.8815 7.452 36.3615 7.724C36.8415 7.996 37.2095 8.372 37.4655 8.852C37.7295 9.324 37.8615 9.86 37.8615 10.46ZM36.7335 10.232C36.7335 9.816 36.6415 9.46 36.4575 9.164C36.2735 8.86 36.0215 8.632 35.7015 8.48C35.3895 8.32 35.0415 8.24 34.6575 8.24C34.1055 8.24 33.6335 8.416 33.2415 8.768C32.8575 9.12 32.6375 9.608 32.5815 10.232H36.7335Z" fill="white"/>
</g>
</svg>
