<svg width="130" height="40" viewBox="0 0 130 40" fill="none" xmlns="http://www.w3.org/2000/svg">
<mask id="mask0_2_47" style="mask-type:luminance" maskUnits="userSpaceOnUse" x="0" y="0" width="130" height="40">
<path d="M130 0H0V40H130V0Z" fill="white"/>
</mask>
<g mask="url(#mask0_2_47)">
<path d="M7.536 6.348V7.532H2.688V11.292H6.624V12.476H2.688V17.5H1.232V6.348H7.536ZM13.1185 17.644C12.2972 17.644 11.5505 17.4573 10.8785 17.084C10.2172 16.7107 9.6945 16.1827 9.3105 15.5C8.93717 14.8067 8.7505 14.0067 8.7505 13.1C8.7505 12.204 8.9425 11.4147 9.3265 10.732C9.72117 10.0387 10.2545 9.51067 10.9265 9.148C11.5985 8.77467 12.3505 8.588 13.1825 8.588C14.0145 8.588 14.7665 8.77467 15.4385 9.148C16.1105 9.51067 16.6385 10.0333 17.0225 10.716C17.4172 11.3987 17.6145 12.1933 17.6145 13.1C17.6145 14.0067 17.4118 14.8067 17.0065 15.5C16.6118 16.1827 16.0732 16.7107 15.3905 17.084C14.7078 17.4573 13.9505 17.644 13.1185 17.644ZM13.1185 16.364C13.6412 16.364 14.1318 16.2413 14.5905 15.996C15.0492 15.7507 15.4172 15.3827 15.6945 14.892C15.9825 14.4013 16.1265 13.804 16.1265 13.1C16.1265 12.396 15.9878 11.7987 15.7105 11.308C15.4332 10.8173 15.0705 10.4547 14.6225 10.22C14.1745 9.97467 13.6892 9.852 13.1665 9.852C12.6332 9.852 12.1425 9.97467 11.6945 10.22C11.2572 10.4547 10.9052 10.8173 10.6385 11.308C10.3718 11.7987 10.2385 12.396 10.2385 13.1C10.2385 13.8147 10.3665 14.4173 10.6225 14.908C10.8892 15.3987 11.2412 15.7667 11.6785 16.012C12.1158 16.2467 12.5958 16.364 13.1185 16.364ZM21.3049 9.932V15.1C21.3049 15.5267 21.3955 15.8307 21.5769 16.012C21.7582 16.1827 22.0729 16.268 22.5209 16.268H23.5929V17.5H22.2809C21.4702 17.5 20.8622 17.3133 20.4569 16.94C20.0515 16.5667 19.8489 15.9533 19.8489 15.1V9.932H18.7129V8.732H19.8489V6.524H21.3049V8.732H23.5929V9.932H21.3049ZM29.181 17.644C28.3597 17.644 27.613 17.4573 26.941 17.084C26.2797 16.7107 25.757 16.1827 25.373 15.5C24.9997 14.8067 24.813 14.0067 24.813 13.1C24.813 12.204 25.005 11.4147 25.389 10.732C25.7837 10.0387 26.317 9.51067 26.989 9.148C27.661 8.77467 28.413 8.588 29.245 8.588C30.077 8.588 30.829 8.77467 31.501 9.148C32.173 9.51067 32.701 10.0333 33.085 10.716C33.4797 11.3987 33.677 12.1933 33.677 13.1C33.677 14.0067 33.4743 14.8067 33.069 15.5C32.6743 16.1827 32.1357 16.7107 31.453 17.084C30.7703 17.4573 30.013 17.644 29.181 17.644ZM29.181 16.364C29.7037 16.364 30.1943 16.2413 30.653 15.996C31.1117 15.7507 31.4797 15.3827 31.757 14.892C32.045 14.4013 32.189 13.804 32.189 13.1C32.189 12.396 32.0503 11.7987 31.773 11.308C31.4957 10.8173 31.133 10.4547 30.685 10.22C30.237 9.97467 29.7517 9.852 29.229 9.852C28.6957 9.852 28.205 9.97467 27.757 10.22C27.3197 10.4547 26.9677 10.8173 26.701 11.308C26.4343 11.7987 26.301 12.396 26.301 13.1C26.301 13.8147 26.429 14.4173 26.685 14.908C26.9517 15.3987 27.3037 15.7667 27.741 16.012C28.1783 16.2467 28.6583 16.364 29.181 16.364ZM39.2074 8.588C39.9647 8.588 40.626 8.75333 41.1914 9.084C41.7674 9.41467 42.194 9.83067 42.4714 10.332V8.732H43.9434V17.692C43.9434 18.492 43.7727 19.2013 43.4314 19.82C43.09 20.4493 42.5994 20.94 41.9594 21.292C41.33 21.644 40.594 21.82 39.7514 21.82C38.5994 21.82 37.6394 21.548 36.8714 21.004C36.1034 20.46 35.65 19.7187 35.5114 18.78H36.9514C37.1114 19.3133 37.442 19.74 37.9434 20.06C38.4447 20.3907 39.0474 20.556 39.7514 20.556C40.5514 20.556 41.202 20.3053 41.7034 19.804C42.2154 19.3027 42.4714 18.5987 42.4714 17.692V15.852C42.1834 16.364 41.7567 16.7907 41.1914 17.132C40.626 17.4733 39.9647 17.644 39.2074 17.644C38.4287 17.644 37.7194 17.452 37.0794 17.068C36.45 16.684 35.954 16.1453 35.5914 15.452C35.2287 14.7587 35.0474 13.9693 35.0474 13.084C35.0474 12.188 35.2287 11.404 35.5914 10.732C35.954 10.0493 36.45 9.52133 37.0794 9.148C37.7194 8.77467 38.4287 8.588 39.2074 8.588ZM42.4714 13.1C42.4714 12.4387 42.338 11.8627 42.0714 11.372C41.8047 10.8813 41.442 10.508 40.9834 10.252C40.5354 9.98533 40.0394 9.852 39.4954 9.852C38.9514 9.852 38.4554 9.98 38.0074 10.236C37.5594 10.492 37.202 10.8653 36.9354 11.356C36.6687 11.8467 36.5354 12.4227 36.5354 13.084C36.5354 13.756 36.6687 14.3427 36.9354 14.844C37.202 15.3347 37.5594 15.7133 38.0074 15.98C38.4554 16.236 38.9514 16.364 39.4954 16.364C40.0394 16.364 40.5354 16.236 40.9834 15.98C41.442 15.7133 41.8047 15.3347 42.0714 14.844C42.338 14.3427 42.4714 13.7613 42.4714 13.1ZM47.8599 10.156C48.1159 9.65467 48.4785 9.26533 48.9479 8.988C49.4279 8.71067 50.0092 8.572 50.6919 8.572V10.076H50.3079C48.6759 10.076 47.8599 10.9613 47.8599 12.732V17.5H46.4039V8.732H47.8599V10.156ZM51.8286 13.084C51.8286 12.188 52.01 11.404 52.3726 10.732C52.7353 10.0493 53.2313 9.52133 53.8606 9.148C54.5006 8.77467 55.21 8.588 55.9886 8.588C56.7566 8.588 57.4233 8.75333 57.9886 9.084C58.554 9.41467 58.9753 9.83067 59.2526 10.332V8.732H60.7246V17.5H59.2526V15.868C58.9646 16.38 58.5326 16.8067 57.9566 17.148C57.3913 17.4787 56.73 17.644 55.9726 17.644C55.194 17.644 54.49 17.452 53.8606 17.068C53.2313 16.684 52.7353 16.1453 52.3726 15.452C52.01 14.7587 51.8286 13.9693 51.8286 13.084ZM59.2526 13.1C59.2526 12.4387 59.1193 11.8627 58.8526 11.372C58.586 10.8813 58.2233 10.508 57.7646 10.252C57.3166 9.98533 56.8206 9.852 56.2766 9.852C55.7326 9.852 55.2366 9.98 54.7886 10.236C54.3406 10.492 53.9833 10.8653 53.7166 11.356C53.45 11.8467 53.3166 12.4227 53.3166 13.084C53.3166 13.756 53.45 14.3427 53.7166 14.844C53.9833 15.3347 54.3406 15.7133 54.7886 15.98C55.2366 16.236 55.7326 16.364 56.2766 16.364C56.8206 16.364 57.3166 16.236 57.7646 15.98C58.2233 15.7133 58.586 15.3347 58.8526 14.844C59.1193 14.3427 59.2526 13.7613 59.2526 13.1ZM66.7531 9.932H64.9131V17.5H63.4571V9.932H62.3211V8.732H63.4571V8.108C63.4571 7.12667 63.7078 6.412 64.2091 5.964C64.7211 5.50533 65.5371 5.276 66.6571 5.276V6.492C66.0171 6.492 65.5638 6.62 65.2971 6.876C65.0411 7.12133 64.9131 7.532 64.9131 8.108V8.732H66.7531V9.932ZM69.2028 7.308C68.9254 7.308 68.6908 7.212 68.4988 7.02C68.3068 6.828 68.2108 6.59333 68.2108 6.316C68.2108 6.03867 68.3068 5.804 68.4988 5.612C68.6908 5.42 68.9254 5.324 69.2028 5.324C69.4694 5.324 69.6934 5.42 69.8748 5.612C70.0668 5.804 70.1628 6.03867 70.1628 6.316C70.1628 6.59333 70.0668 6.828 69.8748 7.02C69.6934 7.212 69.4694 7.308 69.2028 7.308ZM69.9068 8.732V17.5H68.4508V8.732H69.9068ZM71.8443 13.084C71.8443 12.188 72.0256 11.404 72.3883 10.732C72.7509 10.0493 73.2469 9.52133 73.8763 9.148C74.5163 8.77467 75.2256 8.588 76.0043 8.588C76.7723 8.588 77.4389 8.75333 78.0043 9.084C78.5696 9.41467 78.9909 9.83067 79.2683 10.332V8.732H80.7403V17.5H79.2683V15.868C78.9803 16.38 78.5483 16.8067 77.9723 17.148C77.4069 17.4787 76.7456 17.644 75.9883 17.644C75.2096 17.644 74.5056 17.452 73.8763 17.068C73.2469 16.684 72.7509 16.1453 72.3883 15.452C72.0256 14.7587 71.8443 13.9693 71.8443 13.084ZM79.2683 13.1C79.2683 12.4387 79.1349 11.8627 78.8683 11.372C78.6016 10.8813 78.2389 10.508 77.7803 10.252C77.3323 9.98533 76.8363 9.852 76.2923 9.852C75.7483 9.852 75.2523 9.98 74.8043 10.236C74.3563 10.492 73.9989 10.8653 73.7323 11.356C73.4656 11.8467 73.3323 12.4227 73.3323 13.084C73.3323 13.756 73.4656 14.3427 73.7323 14.844C73.9989 15.3347 74.3563 15.7133 74.8043 15.98C75.2523 16.236 75.7483 16.364 76.2923 16.364C76.8363 16.364 77.3323 16.236 77.7803 15.98C78.2389 15.7133 78.6016 15.3347 78.8683 14.844C79.1349 14.3427 79.2683 13.7613 79.2683 13.1Z" fill="white"/>
<path d="M9.232 32.78C9.232 33.0573 9.216 33.3507 9.184 33.66H2.176C2.22933 34.524 2.52267 35.2013 3.056 35.692C3.6 36.172 4.256 36.412 5.024 36.412C5.65333 36.412 6.176 36.268 6.592 35.98C7.01867 35.6813 7.31733 35.2867 7.488 34.796H9.056C8.82133 35.6387 8.352 36.3267 7.648 36.86C6.944 37.3827 6.06933 37.644 5.024 37.644C4.192 37.644 3.44533 37.4573 2.784 37.084C2.13333 36.7107 1.62133 36.1827 1.248 35.5C0.874667 34.8067 0.688 34.0067 0.688 33.1C0.688 32.1933 0.869333 31.3987 1.232 30.716C1.59467 30.0333 2.10133 29.5107 2.752 29.148C3.41333 28.7747 4.17067 28.588 5.024 28.588C5.856 28.588 6.592 28.7693 7.232 29.132C7.872 29.4947 8.36267 29.996 8.704 30.636C9.056 31.2653 9.232 31.98 9.232 32.78ZM7.728 32.476C7.728 31.9213 7.60533 31.4467 7.36 31.052C7.11467 30.6467 6.77867 30.3427 6.352 30.14C5.936 29.9267 5.472 29.82 4.96 29.82C4.224 29.82 3.59467 30.0547 3.072 30.524C2.56 30.9933 2.26667 31.644 2.192 32.476H7.728ZM21.6979 28.572C22.3805 28.572 22.9885 28.716 23.5219 29.004C24.0552 29.2813 24.4765 29.7027 24.7859 30.268C25.0952 30.8333 25.2499 31.5213 25.2499 32.332V37.5H23.8099V32.54C23.8099 31.6653 23.5912 30.9987 23.1539 30.54C22.7272 30.0707 22.1459 29.836 21.4099 29.836C20.6525 29.836 20.0499 30.0813 19.6019 30.572C19.1539 31.052 18.9299 31.7507 18.9299 32.668V37.5H17.4899V32.54C17.4899 31.6653 17.2712 30.9987 16.8339 30.54C16.4072 30.0707 15.8259 29.836 15.0899 29.836C14.3325 29.836 13.7299 30.0813 13.2819 30.572C12.8339 31.052 12.6099 31.7507 12.6099 32.668V37.5H11.1539V28.732H12.6099V29.996C12.8979 29.5373 13.2819 29.1853 13.7619 28.94C14.2525 28.6947 14.7912 28.572 15.3779 28.572C16.1139 28.572 16.7645 28.7373 17.3299 29.068C17.8952 29.3987 18.3165 29.884 18.5939 30.524C18.8392 29.9053 19.2445 29.4253 19.8099 29.084C20.3752 28.7427 21.0045 28.572 21.6979 28.572ZM36.9599 37.612C35.9252 37.612 34.9812 37.372 34.1279 36.892C33.2745 36.4013 32.5972 35.724 32.0959 34.86C31.6052 33.9853 31.3599 33.004 31.3599 31.916C31.3599 30.828 31.6052 29.852 32.0959 28.988C32.5972 28.1133 33.2745 27.436 34.1279 26.956C34.9812 26.4653 35.9252 26.22 36.9599 26.22C38.0052 26.22 38.9545 26.4653 39.8079 26.956C40.6612 27.436 41.3332 28.108 41.8239 28.972C42.3145 29.836 42.5599 30.8173 42.5599 31.916C42.5599 33.0147 42.3145 33.996 41.8239 34.86C41.3332 35.724 40.6612 36.4013 39.8079 36.892C38.9545 37.372 38.0052 37.612 36.9599 37.612ZM36.9599 36.348C37.7385 36.348 38.4372 36.1667 39.0559 35.804C39.6852 35.4413 40.1759 34.924 40.5279 34.252C40.8905 33.58 41.0719 32.8013 41.0719 31.916C41.0719 31.02 40.8905 30.2413 40.5279 29.58C40.1759 28.908 39.6905 28.3907 39.0719 28.028C38.4532 27.6653 37.7492 27.484 36.9599 27.484C36.1705 27.484 35.4665 27.6653 34.8479 28.028C34.2292 28.3907 33.7385 28.908 33.3759 29.58C33.0239 30.2413 32.8479 31.02 32.8479 31.916C32.8479 32.8013 33.0239 33.58 33.3759 34.252C33.7385 34.924 34.2292 35.4413 34.8479 35.804C35.4772 36.1667 36.1812 36.348 36.9599 36.348ZM52.258 28.732V37.5H50.802V36.204C50.5247 36.652 50.1353 37.004 49.634 37.26C49.1433 37.5053 48.5993 37.628 48.002 37.628C47.3193 37.628 46.706 37.4893 46.162 37.212C45.618 36.924 45.186 36.4973 44.866 35.932C44.5567 35.3667 44.402 34.6787 44.402 33.868V28.732H45.842V33.676C45.842 34.54 46.0607 35.2067 46.498 35.676C46.9353 36.1347 47.5327 36.364 48.29 36.364C49.0687 36.364 49.682 36.124 50.13 35.644C50.578 35.164 50.802 34.4653 50.802 33.548V28.732H52.258ZM56.4924 29.932V35.1C56.4924 35.5267 56.583 35.8307 56.7644 36.012C56.9457 36.1827 57.2604 36.268 57.7084 36.268H58.7804V37.5H57.4684C56.6577 37.5 56.0497 37.3133 55.6444 36.94C55.239 36.5667 55.0364 35.9533 55.0364 35.1V29.932H53.9004V28.732H55.0364V26.524H56.4924V28.732H58.7804V29.932H56.4924ZM60.0005 33.084C60.0005 32.188 60.1818 31.404 60.5445 30.732C60.9072 30.0493 61.4032 29.5213 62.0325 29.148C62.6725 28.7747 63.3872 28.588 64.1765 28.588C64.8592 28.588 65.4938 28.748 66.0805 29.068C66.6672 29.3773 67.1152 29.788 67.4245 30.3V25.66H68.8965V37.5H67.4245V35.852C67.1365 36.3747 66.7098 36.8067 66.1445 37.148C65.5792 37.4787 64.9178 37.644 64.1605 37.644C63.3818 37.644 62.6725 37.452 62.0325 37.068C61.4032 36.684 60.9072 36.1453 60.5445 35.452C60.1818 34.7587 60.0005 33.9693 60.0005 33.084ZM67.4245 33.1C67.4245 32.4387 67.2912 31.8627 67.0245 31.372C66.7578 30.8813 66.3952 30.508 65.9365 30.252C65.4885 29.9853 64.9925 29.852 64.4485 29.852C63.9045 29.852 63.4085 29.98 62.9605 30.236C62.5125 30.492 62.1552 30.8653 61.8885 31.356C61.6218 31.8467 61.4885 32.4227 61.4885 33.084C61.4885 33.756 61.6218 34.3427 61.8885 34.844C62.1552 35.3347 62.5125 35.7133 62.9605 35.98C63.4085 36.236 63.9045 36.364 64.4485 36.364C64.9925 36.364 65.4885 36.236 65.9365 35.98C66.3952 35.7133 66.7578 35.3347 67.0245 34.844C67.2912 34.3427 67.4245 33.7613 67.4245 33.1ZM75.181 37.644C74.3597 37.644 73.613 37.4573 72.941 37.084C72.2797 36.7107 71.757 36.1827 71.373 35.5C70.9997 34.8067 70.813 34.0067 70.813 33.1C70.813 32.204 71.005 31.4147 71.389 30.732C71.7837 30.0387 72.317 29.5107 72.989 29.148C73.661 28.7747 74.413 28.588 75.245 28.588C76.077 28.588 76.829 28.7747 77.501 29.148C78.173 29.5107 78.701 30.0333 79.085 30.716C79.4797 31.3987 79.677 32.1933 79.677 33.1C79.677 34.0067 79.4743 34.8067 79.069 35.5C78.6743 36.1827 78.1357 36.7107 77.453 37.084C76.7703 37.4573 76.013 37.644 75.181 37.644ZM75.181 36.364C75.7037 36.364 76.1943 36.2413 76.653 35.996C77.1117 35.7507 77.4797 35.3827 77.757 34.892C78.045 34.4013 78.189 33.804 78.189 33.1C78.189 32.396 78.0503 31.7987 77.773 31.308C77.4957 30.8173 77.133 30.4547 76.685 30.22C76.237 29.9747 75.7517 29.852 75.229 29.852C74.6957 29.852 74.205 29.9747 73.757 30.22C73.3197 30.4547 72.9677 30.8173 72.701 31.308C72.4343 31.7987 72.301 32.396 72.301 33.1C72.301 33.8147 72.429 34.4173 72.685 34.908C72.9517 35.3987 73.3037 35.7667 73.741 36.012C74.1783 36.2467 74.6583 36.364 75.181 36.364ZM85.4154 37.644C84.594 37.644 83.8474 37.4573 83.1754 37.084C82.514 36.7107 81.9914 36.1827 81.6074 35.5C81.234 34.8067 81.0474 34.0067 81.0474 33.1C81.0474 32.204 81.2394 31.4147 81.6234 30.732C82.018 30.0387 82.5514 29.5107 83.2234 29.148C83.8954 28.7747 84.6474 28.588 85.4794 28.588C86.3114 28.588 87.0634 28.7747 87.7354 29.148C88.4074 29.5107 88.9354 30.0333 89.3194 30.716C89.714 31.3987 89.9114 32.1933 89.9114 33.1C89.9114 34.0067 89.7087 34.8067 89.3034 35.5C88.9087 36.1827 88.37 36.7107 87.6874 37.084C87.0047 37.4573 86.2474 37.644 85.4154 37.644ZM85.4154 36.364C85.938 36.364 86.4287 36.2413 86.8874 35.996C87.346 35.7507 87.714 35.3827 87.9914 34.892C88.2794 34.4013 88.4234 33.804 88.4234 33.1C88.4234 32.396 88.2847 31.7987 88.0074 31.308C87.73 30.8173 87.3674 30.4547 86.9194 30.22C86.4714 29.9747 85.986 29.852 85.4634 29.852C84.93 29.852 84.4394 29.9747 83.9914 30.22C83.554 30.4547 83.202 30.8173 82.9354 31.308C82.6687 31.7987 82.5354 32.396 82.5354 33.1C82.5354 33.8147 82.6634 34.4173 82.9194 34.908C83.186 35.3987 83.538 35.7667 83.9754 36.012C84.4127 36.2467 84.8927 36.364 85.4154 36.364ZM93.2818 30.156C93.5378 29.6547 93.9004 29.2653 94.3698 28.988C94.8498 28.7107 95.4311 28.572 96.1138 28.572V30.076H95.7298C94.0978 30.076 93.2818 30.9613 93.2818 32.732V37.5H91.8258V28.732H93.2818V30.156Z" fill="white"/>
</g>
</svg>
