<svg width="259" height="48" viewBox="0 0 259 48" fill="none" xmlns="http://www.w3.org/2000/svg">
<mask id="mask0_2_579" style="mask-type:luminance" maskUnits="userSpaceOnUse" x="0" y="0" width="259" height="48">
<path d="M259 0H0V48H259V0Z" fill="white"/>
</mask>
<g mask="url(#mask0_2_579)">
<path d="M19.104 22.768C19.104 24.0693 18.8053 25.264 18.208 26.352C17.6107 27.4187 16.6933 28.2827 15.456 28.944C14.2187 29.6053 12.6827 29.936 10.848 29.936H7.456V38H1.984V15.536H10.848C12.64 15.536 14.1547 15.8453 15.392 16.464C16.6293 17.0827 17.5573 17.936 18.176 19.024C18.7947 20.112 19.104 21.36 19.104 22.768ZM10.432 25.584C11.4773 25.584 12.256 25.3387 12.768 24.848C13.28 24.3573 13.536 23.664 13.536 22.768C13.536 21.872 13.28 21.1787 12.768 20.688C12.256 20.1973 11.4773 19.952 10.432 19.952H7.456V25.584H10.432ZM40.1928 20.144L28.9928 46.48H23.1048L27.2008 37.392L19.9367 20.144H26.0488L30.1768 31.312L34.2728 20.144H40.1928ZM52.1235 33.36V38H49.3395C47.3555 38 45.8088 37.52 44.6995 36.56C43.5902 35.5787 43.0355 33.9893 43.0355 31.792V24.688H40.8595V20.144H43.0355V15.792H48.5075V20.144H52.0915V24.688H48.5075V31.856C48.5075 32.3893 48.6355 32.7733 48.8915 33.008C49.1475 33.2427 49.5742 33.36 50.1715 33.36H52.1235ZM66.1475 19.952C68.1955 19.952 69.8382 20.6347 71.0755 22C72.3128 23.344 72.9315 25.2 72.9315 27.568V38H67.4915V28.304C67.4915 27.1093 67.1822 26.1813 66.5635 25.52C65.9448 24.8587 65.1128 24.528 64.0675 24.528C63.0222 24.528 62.1902 24.8587 61.5715 25.52C60.9528 26.1813 60.6435 27.1093 60.6435 28.304V38H55.1715V14.32H60.6435V22.544C61.1982 21.7547 61.9555 21.1253 62.9155 20.656C63.8755 20.1867 64.9528 19.952 66.1475 19.952ZM84.862 38.256C83.1127 38.256 81.534 37.8827 80.126 37.136C78.7393 36.3893 77.6407 35.3227 76.83 33.936C76.0407 32.5493 75.646 30.928 75.646 29.072C75.646 27.2373 76.0513 25.6267 76.862 24.24C77.6727 22.832 78.782 21.7547 80.19 21.008C81.598 20.2613 83.1767 19.888 84.926 19.888C86.6753 19.888 88.254 20.2613 89.662 21.008C91.07 21.7547 92.1793 22.832 92.99 24.24C93.8007 25.6267 94.206 27.2373 94.206 29.072C94.206 30.9067 93.79 32.528 92.958 33.936C92.1473 35.3227 91.0273 36.3893 89.598 37.136C88.19 37.8827 86.6113 38.256 84.862 38.256ZM84.862 33.52C85.9073 33.52 86.7927 33.136 87.518 32.368C88.2647 31.6 88.638 30.5013 88.638 29.072C88.638 27.6427 88.2753 26.544 87.55 25.776C86.846 25.008 85.9713 24.624 84.926 24.624C83.8593 24.624 82.974 25.008 82.27 25.776C81.566 26.5227 81.214 27.6213 81.214 29.072C81.214 30.5013 81.5553 31.6 82.238 32.368C82.942 33.136 83.8167 33.52 84.862 33.52ZM107.989 19.952C110.08 19.952 111.744 20.6347 112.981 22C114.24 23.344 114.869 25.2 114.869 27.568V38H109.429V28.304C109.429 27.1093 109.12 26.1813 108.501 25.52C107.882 24.8587 107.05 24.528 106.005 24.528C104.96 24.528 104.128 24.8587 103.509 25.52C102.89 26.1813 102.581 27.1093 102.581 28.304V38H97.109V20.144H102.581V22.512C103.136 21.7227 103.882 21.104 104.821 20.656C105.76 20.1867 106.816 19.952 107.989 19.952ZM139.053 26.48C140.354 26.7573 141.399 27.408 142.189 28.432C142.978 29.4347 143.373 30.5867 143.373 31.888C143.373 33.7653 142.711 35.2587 141.389 36.368C140.087 37.456 138.263 38 135.917 38H125.453V15.536H135.565C137.847 15.536 139.629 16.0587 140.909 17.104C142.21 18.1493 142.861 19.568 142.861 21.36C142.861 22.6827 142.509 23.7813 141.805 24.656C141.122 25.5307 140.205 26.1387 139.053 26.48ZM130.925 24.624H134.509C135.405 24.624 136.087 24.432 136.557 24.048C137.047 23.6427 137.293 23.056 137.293 22.288C137.293 21.52 137.047 20.9333 136.557 20.528C136.087 20.1227 135.405 19.92 134.509 19.92H130.925V24.624ZM134.957 33.584C135.874 33.584 136.578 33.3813 137.069 32.976C137.581 32.5493 137.837 31.9413 137.837 31.152C137.837 30.3627 137.57 29.744 137.037 29.296C136.525 28.848 135.81 28.624 134.893 28.624H130.925V33.584H134.957ZM145.459 29.04C145.459 27.2053 145.8 25.5947 146.483 24.208C147.187 22.8213 148.136 21.7547 149.331 21.008C150.525 20.2613 151.859 19.888 153.331 19.888C154.589 19.888 155.688 20.144 156.627 20.656C157.587 21.168 158.323 21.84 158.835 22.672V20.144H164.307V38H158.835V35.472C158.301 36.304 157.555 36.976 156.595 37.488C155.656 38 154.557 38.256 153.299 38.256C151.848 38.256 150.525 37.8827 149.331 37.136C148.136 36.368 147.187 35.2907 146.483 33.904C145.8 32.496 145.459 30.8747 145.459 29.04ZM158.835 29.072C158.835 27.7067 158.451 26.6293 157.683 25.84C156.936 25.0507 156.019 24.656 154.931 24.656C153.843 24.656 152.915 25.0507 152.147 25.84C151.4 26.608 151.027 27.6747 151.027 29.04C151.027 30.4053 151.4 31.4933 152.147 32.304C152.915 33.0933 153.843 33.488 154.931 33.488C156.019 33.488 156.936 33.0933 157.683 32.304C158.451 31.5147 158.835 30.4373 158.835 29.072ZM159.251 15.696L151.539 18.928V15.152L159.251 11.44V15.696ZM175.529 38.256C173.972 38.256 172.585 37.9893 171.369 37.456C170.153 36.9227 169.193 36.1973 168.489 35.28C167.785 34.3413 167.391 33.296 167.305 32.144H172.713C172.777 32.7627 173.065 33.264 173.577 33.648C174.089 34.032 174.719 34.224 175.465 34.224C176.148 34.224 176.671 34.096 177.033 33.84C177.417 33.5627 177.609 33.2107 177.609 32.784C177.609 32.272 177.343 31.8987 176.809 31.664C176.276 31.408 175.412 31.1307 174.217 30.832C172.937 30.5333 171.871 30.224 171.017 29.904C170.164 29.5627 169.428 29.04 168.809 28.336C168.191 27.6107 167.881 26.64 167.881 25.424C167.881 24.4 168.159 23.472 168.713 22.64C169.289 21.7867 170.121 21.1147 171.209 20.624C172.319 20.1333 173.631 19.888 175.145 19.888C177.385 19.888 179.145 20.4427 180.425 21.552C181.727 22.6613 182.473 24.1333 182.665 25.968H177.609C177.524 25.3493 177.247 24.8587 176.777 24.496C176.329 24.1333 175.732 23.952 174.985 23.952C174.345 23.952 173.855 24.08 173.513 24.336C173.172 24.5707 173.001 24.9013 173.001 25.328C173.001 25.84 173.268 26.224 173.801 26.48C174.356 26.736 175.209 26.992 176.361 27.248C177.684 27.5893 178.761 27.9307 179.593 28.272C180.425 28.592 181.151 29.1253 181.769 29.872C182.409 30.5973 182.74 31.5787 182.761 32.816C182.761 33.8613 182.463 34.8 181.865 35.632C181.289 36.4427 180.447 37.0827 179.337 37.552C178.249 38.0213 176.98 38.256 175.529 38.256ZM188.861 18.288C187.901 18.288 187.112 18.0107 186.493 17.456C185.896 16.88 185.597 16.176 185.597 15.344C185.597 14.4907 185.896 13.7867 186.493 13.232C187.112 12.656 187.901 12.368 188.861 12.368C189.8 12.368 190.568 12.656 191.165 13.232C191.784 13.7867 192.093 14.4907 192.093 15.344C192.093 16.176 191.784 16.88 191.165 17.456C190.568 18.0107 189.8 18.288 188.861 18.288ZM191.581 20.144V38H186.109V20.144H191.581ZM194.459 29.072C194.459 27.216 194.832 25.5947 195.579 24.208C196.347 22.8213 197.403 21.7547 198.747 21.008C200.112 20.2613 201.669 19.888 203.419 19.888C205.659 19.888 207.525 20.4747 209.019 21.648C210.533 22.8213 211.525 24.4747 211.995 26.608H206.171C205.68 25.2427 204.731 24.56 203.323 24.56C202.32 24.56 201.52 24.9547 200.923 25.744C200.325 26.512 200.027 27.6213 200.027 29.072C200.027 30.5227 200.325 31.6427 200.923 32.432C201.52 33.2 202.32 33.584 203.323 33.584C204.731 33.584 205.68 32.9013 206.171 31.536H211.995C211.525 33.6267 210.533 35.2693 209.019 36.464C207.504 37.6587 205.637 38.256 203.419 38.256C201.669 38.256 200.112 37.8827 198.747 37.136C197.403 36.3893 196.347 35.3227 195.579 33.936C194.832 32.5493 194.459 30.928 194.459 29.072ZM223.05 38.256C221.3 38.256 219.722 37.8827 218.314 37.136C216.927 36.3893 215.828 35.3227 215.018 33.936C214.228 32.5493 213.834 30.928 213.834 29.072C213.834 27.2373 214.239 25.6267 215.049 24.24C215.86 22.832 216.97 21.7547 218.378 21.008C219.786 20.2613 221.364 19.888 223.114 19.888C224.863 19.888 226.442 20.2613 227.85 21.008C229.258 21.7547 230.367 22.832 231.178 24.24C231.988 25.6267 232.394 27.2373 232.394 29.072C232.394 30.9067 231.978 32.528 231.146 33.936C230.335 35.3227 229.215 36.3893 227.786 37.136C226.378 37.8827 224.799 38.256 223.05 38.256ZM223.05 33.52C224.095 33.52 224.98 33.136 225.706 32.368C226.452 31.6 226.826 30.5013 226.826 29.072C226.826 27.6427 226.463 26.544 225.738 25.776C225.034 25.008 224.159 24.624 223.114 24.624C222.047 24.624 221.162 25.008 220.458 25.776C219.754 26.5227 219.402 27.6213 219.402 29.072C219.402 30.5013 219.743 31.6 220.426 32.368C221.13 33.136 222.004 33.52 223.05 33.52Z" fill="#F7F7F7"/>
</g>
</svg>
