<svg width="72" height="14" viewBox="0 0 72 14" fill="none" xmlns="http://www.w3.org/2000/svg">
<mask id="mask0_2_117" style="mask-type:luminance" maskUnits="userSpaceOnUse" x="0" y="0" width="72" height="14">
<path d="M72 0H0V14H72V0Z" fill="white"/>
</mask>
<g mask="url(#mask0_2_117)">
<path d="M18.528 4.136C19.44 4.136 20.228 4.308 20.892 4.652C21.564 4.988 22.076 5.472 22.428 6.104C22.788 6.736 22.968 7.48 22.968 8.336C22.968 9.192 22.788 9.936 22.428 10.568C22.076 11.192 21.564 11.672 20.892 12.008C20.228 12.336 19.44 12.5 18.528 12.5H15.924V4.136H18.528ZM18.528 11.6C19.608 11.6 20.432 11.316 21 10.748C21.568 10.172 21.852 9.368 21.852 8.336C21.852 7.296 21.564 6.484 20.988 5.9C20.42 5.316 19.6 5.024 18.528 5.024H17.016V11.6H18.528ZM30.4084 8.96C30.4084 9.168 30.3964 9.388 30.3724 9.62H25.1164C25.1564 10.268 25.3764 10.776 25.7764 11.144C26.1844 11.504 26.6764 11.684 27.2524 11.684C27.7244 11.684 28.1164 11.576 28.4284 11.36C28.7484 11.136 28.9724 10.84 29.1004 10.472H30.2764C30.1004 11.104 29.7484 11.62 29.2204 12.02C28.6924 12.412 28.0364 12.608 27.2524 12.608C26.6284 12.608 26.0684 12.468 25.5724 12.188C25.0844 11.908 24.7004 11.512 24.4204 11C24.1404 10.48 24.0004 9.88 24.0004 9.2C24.0004 8.52 24.1364 7.924 24.4084 7.412C24.6804 6.9 25.0604 6.508 25.5484 6.236C26.0444 5.956 26.6124 5.816 27.2524 5.816C27.8764 5.816 28.4284 5.952 28.9084 6.224C29.3884 6.496 29.7564 6.872 30.0124 7.352C30.2764 7.824 30.4084 8.36 30.4084 8.96ZM29.2804 8.732C29.2804 8.316 29.1884 7.96 29.0044 7.664C28.8204 7.36 28.5684 7.132 28.2484 6.98C27.9364 6.82 27.5884 6.74 27.2044 6.74C26.6524 6.74 26.1804 6.916 25.7884 7.268C25.4044 7.62 25.1844 8.108 25.1284 8.732H29.2804ZM34.1778 12.608C33.6738 12.608 33.2218 12.524 32.8218 12.356C32.4218 12.18 32.1058 11.94 31.8738 11.636C31.6418 11.324 31.5138 10.968 31.4898 10.568H32.6178C32.6498 10.896 32.8018 11.164 33.0738 11.372C33.3538 11.58 33.7178 11.684 34.1658 11.684C34.5818 11.684 34.9098 11.592 35.1498 11.408C35.3898 11.224 35.5098 10.992 35.5098 10.712C35.5098 10.424 35.3818 10.212 35.1258 10.076C34.8698 9.932 34.4738 9.792 33.9378 9.656C33.4498 9.528 33.0498 9.4 32.7378 9.272C32.4338 9.136 32.1698 8.94 31.9458 8.684C31.7298 8.42 31.6218 8.076 31.6218 7.652C31.6218 7.316 31.7218 7.008 31.9218 6.728C32.1218 6.448 32.4058 6.228 32.7738 6.068C33.1418 5.9 33.5618 5.816 34.0338 5.816C34.7618 5.816 35.3498 6 35.7978 6.368C36.2458 6.736 36.4858 7.24 36.5178 7.88H35.4258C35.4018 7.536 35.2618 7.26 35.0058 7.052C34.7578 6.844 34.4218 6.74 33.9978 6.74C33.6058 6.74 33.2938 6.824 33.0618 6.992C32.8298 7.16 32.7138 7.38 32.7138 7.652C32.7138 7.868 32.7818 8.048 32.9178 8.192C33.0618 8.328 33.2378 8.44 33.4458 8.528C33.6618 8.608 33.9578 8.7 34.3338 8.804C34.8058 8.932 35.1898 9.06 35.4858 9.188C35.7818 9.308 36.0338 9.492 36.2418 9.74C36.4578 9.988 36.5698 10.312 36.5778 10.712C36.5778 11.072 36.4778 11.396 36.2778 11.684C36.0778 11.972 35.7938 12.2 35.4258 12.368C35.0658 12.528 34.6498 12.608 34.1778 12.608ZM38.6833 4.856C38.4753 4.856 38.2993 4.784 38.1553 4.64C38.0113 4.496 37.9393 4.32 37.9393 4.112C37.9393 3.904 38.0113 3.728 38.1553 3.584C38.2993 3.44 38.4753 3.368 38.6833 3.368C38.8833 3.368 39.0513 3.44 39.1873 3.584C39.3313 3.728 39.4033 3.904 39.4033 4.112C39.4033 4.32 39.3313 4.496 39.1873 4.64C39.0513 4.784 38.8833 4.856 38.6833 4.856ZM39.2113 5.924V12.5H38.1193V5.924H39.2113ZM43.7844 5.816C44.3524 5.816 44.8484 5.94 45.2724 6.188C45.7044 6.436 46.0244 6.748 46.2324 7.124V5.924H47.3364V12.644C47.3364 13.244 47.2084 13.776 46.9524 14.24C46.6964 14.712 46.3284 15.08 45.8484 15.344C45.3764 15.608 44.8244 15.74 44.1924 15.74C43.3284 15.74 42.6084 15.536 42.0324 15.128C41.4564 14.72 41.1164 14.164 41.0124 13.46H42.0924C42.2124 13.86 42.4604 14.18 42.8364 14.42C43.2124 14.668 43.6644 14.792 44.1924 14.792C44.7924 14.792 45.2804 14.604 45.6564 14.228C46.0404 13.852 46.2324 13.324 46.2324 12.644V11.264C46.0164 11.648 45.6964 11.968 45.2724 12.224C44.8484 12.48 44.3524 12.608 43.7844 12.608C43.2004 12.608 42.6684 12.464 42.1884 12.176C41.7164 11.888 41.3444 11.484 41.0724 10.964C40.8004 10.444 40.6644 9.852 40.6644 9.188C40.6644 8.516 40.8004 7.928 41.0724 7.424C41.3444 6.912 41.7164 6.516 42.1884 6.236C42.6684 5.956 43.2004 5.816 43.7844 5.816ZM46.2324 9.2C46.2324 8.704 46.1324 8.272 45.9324 7.904C45.7324 7.536 45.4604 7.256 45.1164 7.064C44.7804 6.864 44.4084 6.764 44.0004 6.764C43.5924 6.764 43.2204 6.86 42.8844 7.052C42.5484 7.244 42.2804 7.524 42.0804 7.892C41.8804 8.26 41.7804 8.692 41.7804 9.188C41.7804 9.692 41.8804 10.132 42.0804 10.508C42.2804 10.876 42.5484 11.16 42.8844 11.36C43.2204 11.552 43.5924 11.648 44.0004 11.648C44.4084 11.648 44.7804 11.552 45.1164 11.36C45.4604 11.16 45.7324 10.876 45.9324 10.508C46.1324 10.132 46.2324 9.696 46.2324 9.2ZM52.3858 5.804C53.1858 5.804 53.8338 6.048 54.3298 6.536C54.8258 7.016 55.0738 7.712 55.0738 8.624V12.5H53.9938V8.78C53.9938 8.124 53.8298 7.624 53.5018 7.28C53.1738 6.928 52.7258 6.752 52.1578 6.752C51.5818 6.752 51.1218 6.932 50.7778 7.292C50.4418 7.652 50.2738 8.176 50.2738 8.864V12.5H49.1818V5.924H50.2738V6.86C50.4898 6.524 50.7818 6.264 51.1498 6.08C51.5258 5.896 51.9378 5.804 52.3858 5.804Z" fill="white"/>
</g>
</svg>
