<svg width="56" height="16" viewBox="0 0 56 16" fill="none" xmlns="http://www.w3.org/2000/svg">
<mask id="mask0_2_32" style="mask-type:luminance" maskUnits="userSpaceOnUse" x="0" y="0" width="56" height="16">
<path d="M56 0H0V16H56V0Z" fill="white"/>
</mask>
<g mask="url(#mask0_2_32)">
<path d="M7.322 4.984H2.408V8.176C2.62267 7.87733 2.94 7.63467 3.36 7.448C3.78 7.252 4.23267 7.154 4.718 7.154C5.49267 7.154 6.12267 7.31733 6.608 7.644C7.09333 7.96133 7.43867 8.37667 7.644 8.89C7.85867 9.394 7.966 9.93067 7.966 10.5C7.966 11.172 7.84 11.774 7.588 12.306C7.336 12.838 6.94867 13.258 6.426 13.566C5.91267 13.874 5.27333 14.028 4.508 14.028C3.528 14.028 2.73467 13.776 2.128 13.272C1.52133 12.768 1.15267 12.096 1.022 11.256H2.268C2.38933 11.788 2.646 12.2033 3.038 12.502C3.43 12.8007 3.92467 12.95 4.522 12.95C5.25933 12.95 5.81467 12.7307 6.188 12.292C6.56133 11.844 6.748 11.256 6.748 10.528C6.748 9.8 6.56133 9.24 6.188 8.848C5.81467 8.44667 5.264 8.246 4.536 8.246C4.04133 8.246 3.60733 8.36733 3.234 8.61C2.87 8.84333 2.604 9.16533 2.436 9.576H1.232V3.864H7.322V4.984Z" fill="white"/>
</g>
</svg>
