<svg width="259" height="22" viewBox="0 0 259 22" fill="none" xmlns="http://www.w3.org/2000/svg">
<mask id="mask0_2_585" style="mask-type:luminance" maskUnits="userSpaceOnUse" x="0" y="0" width="259" height="22">
<path d="M259 0H0V22H259V0Z" fill="white"/>
</mask>
<g mask="url(#mask0_2_585)">
<path d="M2.324 7.242V13.416C2.324 14.284 2.534 14.928 2.954 15.348C3.38333 15.768 3.976 15.978 4.732 15.978C5.47867 15.978 6.062 15.768 6.482 15.348C6.91133 14.928 7.126 14.284 7.126 13.416V7.242H8.4V13.402C8.4 14.214 8.23667 14.9 7.91 15.46C7.58333 16.0107 7.14 16.4213 6.58 16.692C6.02933 16.9627 5.40867 17.098 4.718 17.098C4.02733 17.098 3.402 16.9627 2.842 16.692C2.29133 16.4213 1.85267 16.0107 1.526 15.46C1.20867 14.9 1.05 14.214 1.05 13.402V7.242H2.324ZM19.7513 9.188C20.3486 9.188 20.8806 9.314 21.3473 9.566C21.8139 9.80867 22.1826 10.1773 22.4533 10.672C22.7239 11.1667 22.8593 11.7687 22.8593 12.478V17H21.5993V12.66C21.5993 11.8947 21.4079 11.3113 21.0253 10.91C20.6519 10.4993 20.1433 10.294 19.4993 10.294C18.8366 10.294 18.3093 10.5087 17.9173 10.938C17.5253 11.358 17.3293 11.9693 17.3293 12.772V17H16.0693V12.66C16.0693 11.8947 15.8779 11.3113 15.4953 10.91C15.1219 10.4993 14.6133 10.294 13.9693 10.294C13.3066 10.294 12.7793 10.5087 12.3873 10.938C11.9953 11.358 11.7993 11.9693 11.7993 12.772V17H10.5253V9.328H11.7993V10.434C12.0513 10.0327 12.3873 9.72467 12.8073 9.51C13.2366 9.29533 13.7079 9.188 14.2213 9.188C14.8653 9.188 15.4346 9.33267 15.9293 9.622C16.4239 9.91133 16.7926 10.336 17.0353 10.896C17.2499 10.3547 17.6046 9.93467 18.0993 9.636C18.5939 9.33733 19.1446 9.188 19.7513 9.188ZM24.4731 13.136C24.4731 12.352 24.6318 11.666 24.9491 11.078C25.2664 10.4807 25.7004 10.0187 26.2511 9.692C26.8111 9.36533 27.4318 9.202 28.1131 9.202C28.7851 9.202 29.3684 9.34667 29.8631 9.636C30.3578 9.92533 30.7264 10.2893 30.9691 10.728V9.328H32.2571V17H30.9691V15.572C30.7171 16.02 30.3391 16.3933 29.8351 16.692C29.3404 16.9813 28.7618 17.126 28.0991 17.126C27.4178 17.126 26.8018 16.958 26.2511 16.622C25.7004 16.286 25.2664 15.8147 24.9491 15.208C24.6318 14.6013 24.4731 13.9107 24.4731 13.136ZM30.9691 13.15C30.9691 12.5713 30.8524 12.0673 30.6191 11.638C30.3858 11.2087 30.0684 10.882 29.6671 10.658C29.2751 10.4247 28.8411 10.308 28.3651 10.308C27.8891 10.308 27.4551 10.42 27.0631 10.644C26.6711 10.868 26.3584 11.1947 26.1251 11.624C25.8918 12.0533 25.7751 12.5573 25.7751 13.136C25.7751 13.724 25.8918 14.2373 26.1251 14.676C26.3584 15.1053 26.6711 15.4367 27.0631 15.67C27.4551 15.894 27.8891 16.006 28.3651 16.006C28.8411 16.006 29.2751 15.894 29.6671 15.67C30.0684 15.4367 30.3858 15.1053 30.6191 14.676C30.8524 14.2373 30.9691 13.7287 30.9691 13.15ZM37.6665 13.136C37.6665 12.352 37.8251 11.666 38.1425 11.078C38.4598 10.4807 38.8938 10.0187 39.4445 9.692C40.0045 9.36533 40.6251 9.202 41.3065 9.202C41.9785 9.202 42.5618 9.34667 43.0565 9.636C43.5511 9.92533 43.9198 10.2893 44.1625 10.728V9.328H45.4505V17H44.1625V15.572C43.9105 16.02 43.5325 16.3933 43.0285 16.692C42.5338 16.9813 41.9551 17.126 41.2925 17.126C40.6111 17.126 39.9951 16.958 39.4445 16.622C38.8938 16.286 38.4598 15.8147 38.1425 15.208C37.8251 14.6013 37.6665 13.9107 37.6665 13.136ZM44.1625 13.15C44.1625 12.5713 44.0458 12.0673 43.8125 11.638C43.5791 11.2087 43.2618 10.882 42.8605 10.658C42.4685 10.4247 42.0345 10.308 41.5585 10.308C41.0825 10.308 40.6485 10.42 40.2565 10.644C39.8645 10.868 39.5518 11.1947 39.3185 11.624C39.0851 12.0533 38.9685 12.5573 38.9685 13.136C38.9685 13.724 39.0851 14.2373 39.3185 14.676C39.5518 15.1053 39.8645 15.4367 40.2565 15.67C40.6485 15.894 41.0825 16.006 41.5585 16.006C42.0345 16.006 42.4685 15.894 42.8605 15.67C43.2618 15.4367 43.5791 15.1053 43.8125 14.676C44.0458 14.2373 44.1625 13.7287 44.1625 13.15ZM48.8774 10.756C49.1387 10.2987 49.5214 9.92533 50.0254 9.636C50.5294 9.34667 51.1034 9.202 51.7474 9.202C52.4381 9.202 53.0587 9.36533 53.6094 9.692C54.1601 10.0187 54.5941 10.4807 54.9114 11.078C55.2287 11.666 55.3874 12.352 55.3874 13.136C55.3874 13.9107 55.2287 14.6013 54.9114 15.208C54.5941 15.8147 54.1554 16.286 53.5954 16.622C53.0447 16.958 52.4287 17.126 51.7474 17.126C51.0847 17.126 50.5014 16.9813 49.9974 16.692C49.5027 16.4027 49.1294 16.034 48.8774 15.586V17H47.6034V6.64H48.8774V10.756ZM54.0854 13.136C54.0854 12.5573 53.9687 12.0533 53.7354 11.624C53.5021 11.1947 53.1847 10.868 52.7834 10.644C52.3914 10.42 51.9574 10.308 51.4814 10.308C51.0147 10.308 50.5807 10.4247 50.1794 10.658C49.7874 10.882 49.4701 11.2133 49.2274 11.652C48.9941 12.0813 48.8774 12.5807 48.8774 13.15C48.8774 13.7287 48.9941 14.2373 49.2274 14.676C49.4701 15.1053 49.7874 15.4367 50.1794 15.67C50.5807 15.894 51.0147 16.006 51.4814 16.006C51.9574 16.006 52.3914 15.894 52.7834 15.67C53.1847 15.4367 53.5021 15.1053 53.7354 14.676C53.9687 14.2373 54.0854 13.724 54.0854 13.136ZM60.4103 17.126C59.6917 17.126 59.0383 16.9627 58.4503 16.636C57.8717 16.3093 57.4143 15.8473 57.0783 15.25C56.7517 14.6433 56.5883 13.9433 56.5883 13.15C56.5883 12.366 56.7563 11.6753 57.0923 11.078C57.4377 10.4713 57.9043 10.0093 58.4923 9.692C59.0803 9.36533 59.7383 9.202 60.4663 9.202C61.1943 9.202 61.8523 9.36533 62.4403 9.692C63.0283 10.0093 63.4903 10.4667 63.8263 11.064C64.1717 11.6613 64.3443 12.3567 64.3443 13.15C64.3443 13.9433 64.167 14.6433 63.8123 15.25C63.467 15.8473 62.9957 16.3093 62.3983 16.636C61.801 16.9627 61.1383 17.126 60.4103 17.126ZM60.4103 16.006C60.8677 16.006 61.297 15.8987 61.6983 15.684C62.0997 15.4693 62.4217 15.1473 62.6643 14.718C62.9163 14.2887 63.0423 13.766 63.0423 13.15C63.0423 12.534 62.921 12.0113 62.6783 11.582C62.4357 11.1527 62.1183 10.8353 61.7263 10.63C61.3343 10.4153 60.9097 10.308 60.4523 10.308C59.9857 10.308 59.5563 10.4153 59.1643 10.63C58.7817 10.8353 58.4737 11.1527 58.2403 11.582C58.007 12.0113 57.8903 12.534 57.8903 13.15C57.8903 13.7753 58.0023 14.3027 58.2263 14.732C58.4597 15.1613 58.7677 15.4833 59.1503 15.698C59.533 15.9033 59.953 16.006 60.4103 16.006ZM67.2934 10.574C67.5174 10.1353 67.8347 9.79467 68.2454 9.552C68.6654 9.30933 69.1741 9.188 69.7714 9.188V10.504H69.4354C68.0074 10.504 67.2934 11.2787 67.2934 12.828V17H66.0194V9.328H67.2934V10.574ZM70.7661 13.136C70.7661 12.352 70.9247 11.666 71.2421 11.078C71.5594 10.4807 71.9934 10.0187 72.5441 9.692C73.1041 9.36533 73.7294 9.202 74.4201 9.202C75.0174 9.202 75.5727 9.342 76.0861 9.622C76.5994 9.89267 76.9914 10.252 77.2621 10.7V6.64H78.5501V17H77.2621V15.558C77.0101 16.0153 76.6367 16.3933 76.1421 16.692C75.6474 16.9813 75.0687 17.126 74.4061 17.126C73.7247 17.126 73.1041 16.958 72.5441 16.622C71.9934 16.286 71.5594 15.8147 71.2421 15.208C70.9247 14.6013 70.7661 13.9107 70.7661 13.136ZM77.2621 13.15C77.2621 12.5713 77.1454 12.0673 76.9121 11.638C76.6787 11.2087 76.3614 10.882 75.9601 10.658C75.5681 10.4247 75.1341 10.308 74.6581 10.308C74.1821 10.308 73.7481 10.42 73.3561 10.644C72.9641 10.868 72.6514 11.1947 72.4181 11.624C72.1847 12.0533 72.0681 12.5573 72.0681 13.136C72.0681 13.724 72.1847 14.2373 72.4181 14.676C72.6514 15.1053 72.9641 15.4367 73.3561 15.67C73.7481 15.894 74.1821 16.006 74.6581 16.006C75.1341 16.006 75.5681 15.894 75.9601 15.67C76.3614 15.4367 76.6787 15.1053 76.9121 14.676C77.1454 14.2373 77.2621 13.7287 77.2621 13.15ZM80.227 13.136C80.227 12.352 80.3857 11.666 80.703 11.078C81.0203 10.4807 81.4543 10.0187 82.005 9.692C82.565 9.36533 83.1857 9.202 83.867 9.202C84.539 9.202 85.1223 9.34667 85.617 9.636C86.1117 9.92533 86.4803 10.2893 86.723 10.728V9.328H88.011V17H86.723V15.572C86.471 16.02 86.093 16.3933 85.589 16.692C85.0943 16.9813 84.5157 17.126 83.853 17.126C83.1717 17.126 82.5557 16.958 82.005 16.622C81.4543 16.286 81.0203 15.8147 80.703 15.208C80.3857 14.6013 80.227 13.9107 80.227 13.136ZM86.723 13.15C86.723 12.5713 86.6063 12.0673 86.373 11.638C86.1397 11.2087 85.8223 10.882 85.421 10.658C85.029 10.4247 84.595 10.308 84.119 10.308C83.643 10.308 83.209 10.42 82.817 10.644C82.425 10.868 82.1123 11.1947 81.879 11.624C81.6457 12.0533 81.529 12.5573 81.529 13.136C81.529 13.724 81.6457 14.2373 81.879 14.676C82.1123 15.1053 82.425 15.4367 82.817 15.67C83.209 15.894 83.643 16.006 84.119 16.006C84.595 16.006 85.029 15.894 85.421 15.67C85.8223 15.4367 86.1397 15.1053 86.373 14.676C86.6063 14.2373 86.723 13.7287 86.723 13.15ZM93.3279 9.202C93.9906 9.202 94.5693 9.34667 95.0639 9.636C95.5679 9.92533 95.9413 10.2893 96.1839 10.728V9.328H97.4719V17.168C97.4719 17.868 97.3226 18.4887 97.0239 19.03C96.7253 19.5807 96.2959 20.01 95.7359 20.318C95.1853 20.626 94.5413 20.78 93.8039 20.78C92.7959 20.78 91.9559 20.542 91.2839 20.066C90.6119 19.59 90.2153 18.9413 90.0939 18.12H91.3539C91.4939 18.5867 91.7833 18.96 92.2219 19.24C92.6606 19.5293 93.1879 19.674 93.8039 19.674C94.5039 19.674 95.0733 19.4547 95.5119 19.016C95.9599 18.5773 96.1839 17.9613 96.1839 17.168V15.558C95.9319 16.006 95.5586 16.3793 95.0639 16.678C94.5693 16.9767 93.9906 17.126 93.3279 17.126C92.6466 17.126 92.0259 16.958 91.4659 16.622C90.9153 16.286 90.4813 15.8147 90.1639 15.208C89.8466 14.6013 89.6879 13.9107 89.6879 13.136C89.6879 12.352 89.8466 11.666 90.1639 11.078C90.4813 10.4807 90.9153 10.0187 91.4659 9.692C92.0259 9.36533 92.6466 9.202 93.3279 9.202ZM96.1839 13.15C96.1839 12.5713 96.0673 12.0673 95.8339 11.638C95.6006 11.2087 95.2833 10.882 94.8819 10.658C94.4899 10.4247 94.0559 10.308 93.5799 10.308C93.1039 10.308 92.6699 10.42 92.2779 10.644C91.8859 10.868 91.5733 11.1947 91.3399 11.624C91.1066 12.0533 90.9899 12.5573 90.9899 13.136C90.9899 13.724 91.1066 14.2373 91.3399 14.676C91.5733 15.1053 91.8859 15.4367 92.2779 15.67C92.6699 15.894 93.1039 16.006 93.5799 16.006C94.0559 16.006 94.4899 15.894 94.8819 15.67C95.2833 15.4367 95.6006 15.1053 95.8339 14.676C96.0673 14.2373 96.1839 13.7287 96.1839 13.15ZM106.625 12.87C106.625 13.1127 106.611 13.3693 106.583 13.64H100.451C100.498 14.396 100.754 14.9887 101.221 15.418C101.697 15.838 102.271 16.048 102.943 16.048C103.494 16.048 103.951 15.922 104.315 15.67C104.688 15.4087 104.95 15.0633 105.099 14.634H106.471C106.266 15.3713 105.855 15.9733 105.239 16.44C104.623 16.8973 103.858 17.126 102.943 17.126C102.215 17.126 101.562 16.9627 100.983 16.636C100.414 16.3093 99.9655 15.8473 99.6389 15.25C99.3122 14.6433 99.1489 13.9433 99.1489 13.15C99.1489 12.3567 99.3075 11.6613 99.6249 11.064C99.9422 10.4667 100.386 10.0093 100.955 9.692C101.534 9.36533 102.196 9.202 102.943 9.202C103.671 9.202 104.315 9.36067 104.875 9.678C105.435 9.99533 105.864 10.434 106.163 10.994C106.471 11.5447 106.625 12.17 106.625 12.87ZM105.309 12.604C105.309 12.1187 105.202 11.7033 104.987 11.358C104.772 11.0033 104.478 10.7373 104.105 10.56C103.741 10.3733 103.335 10.28 102.887 10.28C102.243 10.28 101.692 10.4853 101.235 10.896C100.787 11.3067 100.53 11.876 100.465 12.604H105.309ZM117.533 9.188C118.13 9.188 118.662 9.314 119.129 9.566C119.595 9.80867 119.964 10.1773 120.235 10.672C120.505 11.1667 120.641 11.7687 120.641 12.478V17H119.381V12.66C119.381 11.8947 119.189 11.3113 118.807 10.91C118.433 10.4993 117.925 10.294 117.281 10.294C116.618 10.294 116.091 10.5087 115.699 10.938C115.307 11.358 115.111 11.9693 115.111 12.772V17H113.851V12.66C113.851 11.8947 113.659 11.3113 113.277 10.91C112.903 10.4993 112.395 10.294 111.751 10.294C111.088 10.294 110.561 10.5087 110.169 10.938C109.777 11.358 109.581 11.9693 109.581 12.772V17H108.307V9.328H109.581V10.434C109.833 10.0327 110.169 9.72467 110.589 9.51C111.018 9.29533 111.489 9.188 112.003 9.188C112.647 9.188 113.216 9.33267 113.711 9.622C114.205 9.91133 114.574 10.336 114.817 10.896C115.031 10.3547 115.386 9.93467 115.881 9.636C116.375 9.33733 116.926 9.188 117.533 9.188ZM127.121 8.082C126.878 8.082 126.673 7.998 126.505 7.83C126.337 7.662 126.253 7.45667 126.253 7.214C126.253 6.97133 126.337 6.766 126.505 6.598C126.673 6.43 126.878 6.346 127.121 6.346C127.354 6.346 127.55 6.43 127.709 6.598C127.877 6.766 127.961 6.97133 127.961 7.214C127.961 7.45667 127.877 7.662 127.709 7.83C127.55 7.998 127.354 8.082 127.121 8.082ZM127.737 9.328V17H126.463V9.328H127.737ZM133.646 9.188C134.579 9.188 135.335 9.47267 135.914 10.042C136.493 10.602 136.782 11.414 136.782 12.478V17H135.522V12.66C135.522 11.8947 135.331 11.3113 134.948 10.91C134.565 10.4993 134.043 10.294 133.38 10.294C132.708 10.294 132.171 10.504 131.77 10.924C131.378 11.344 131.182 11.9553 131.182 12.758V17H129.908V9.328H131.182V10.42C131.434 10.028 131.775 9.72467 132.204 9.51C132.643 9.29533 133.123 9.188 133.646 9.188ZM140.417 10.378V14.9C140.417 15.2733 140.496 15.5393 140.655 15.698C140.814 15.8473 141.089 15.922 141.481 15.922H142.419V17H141.271C140.562 17 140.03 16.8367 139.675 16.51C139.32 16.1833 139.143 15.6467 139.143 14.9V10.378H138.149V9.328H139.143V7.396H140.417V9.328H142.419V10.378H140.417ZM145.237 10.574C145.461 10.1353 145.778 9.79467 146.189 9.552C146.609 9.30933 147.117 9.188 147.715 9.188V10.504H147.379C145.951 10.504 145.237 11.2787 145.237 12.828V17H143.963V9.328H145.237V10.574ZM152.531 17.126C151.813 17.126 151.159 16.9627 150.571 16.636C149.993 16.3093 149.535 15.8473 149.199 15.25C148.873 14.6433 148.709 13.9433 148.709 13.15C148.709 12.366 148.877 11.6753 149.213 11.078C149.559 10.4713 150.025 10.0093 150.613 9.692C151.201 9.36533 151.859 9.202 152.587 9.202C153.315 9.202 153.973 9.36533 154.561 9.692C155.149 10.0093 155.611 10.4667 155.947 11.064C156.293 11.6613 156.465 12.3567 156.465 13.15C156.465 13.9433 156.288 14.6433 155.933 15.25C155.588 15.8473 155.117 16.3093 154.519 16.636C153.922 16.9627 153.259 17.126 152.531 17.126ZM152.531 16.006C152.989 16.006 153.418 15.8987 153.819 15.684C154.221 15.4693 154.543 15.1473 154.785 14.718C155.037 14.2887 155.163 13.766 155.163 13.15C155.163 12.534 155.042 12.0113 154.799 11.582C154.557 11.1527 154.239 10.8353 153.847 10.63C153.455 10.4153 153.031 10.308 152.573 10.308C152.107 10.308 151.677 10.4153 151.285 10.63C150.903 10.8353 150.595 11.1527 150.361 11.582C150.128 12.0113 150.011 12.534 150.011 13.15C150.011 13.7753 150.123 14.3027 150.347 14.732C150.581 15.1613 150.889 15.4833 151.271 15.698C151.654 15.9033 152.074 16.006 152.531 16.006ZM157.665 13.136C157.665 12.352 157.823 11.666 158.141 11.078C158.458 10.4807 158.892 10.0187 159.443 9.692C160.003 9.36533 160.628 9.202 161.319 9.202C161.916 9.202 162.471 9.342 162.985 9.622C163.498 9.89267 163.89 10.252 164.161 10.7V6.64H165.449V17H164.161V15.558C163.909 16.0153 163.535 16.3933 163.041 16.692C162.546 16.9813 161.967 17.126 161.305 17.126C160.623 17.126 160.003 16.958 159.443 16.622C158.892 16.286 158.458 15.8147 158.141 15.208C157.823 14.6013 157.665 13.9107 157.665 13.136ZM164.161 13.15C164.161 12.5713 164.044 12.0673 163.811 11.638C163.577 11.2087 163.26 10.882 162.859 10.658C162.467 10.4247 162.033 10.308 161.557 10.308C161.081 10.308 160.647 10.42 160.255 10.644C159.863 10.868 159.55 11.1947 159.317 11.624C159.083 12.0533 158.967 12.5573 158.967 13.136C158.967 13.724 159.083 14.2373 159.317 14.676C159.55 15.1053 159.863 15.4367 160.255 15.67C160.647 15.894 161.081 16.006 161.557 16.006C162.033 16.006 162.467 15.894 162.859 15.67C163.26 15.4367 163.577 15.1053 163.811 14.676C164.044 14.2373 164.161 13.7287 164.161 13.15ZM174.405 9.328V17H173.131V15.866C172.889 16.258 172.548 16.566 172.109 16.79C171.68 17.0047 171.204 17.112 170.681 17.112C170.084 17.112 169.547 16.9907 169.071 16.748C168.595 16.496 168.217 16.1227 167.937 15.628C167.667 15.1333 167.531 14.5313 167.531 13.822V9.328H168.791V13.654C168.791 14.41 168.983 14.9933 169.365 15.404C169.748 15.8053 170.271 16.006 170.933 16.006C171.615 16.006 172.151 15.796 172.543 15.376C172.935 14.956 173.131 14.3447 173.131 13.542V9.328H174.405ZM178.111 10.378V14.9C178.111 15.2733 178.19 15.5393 178.349 15.698C178.507 15.8473 178.783 15.922 179.175 15.922H180.113V17H178.965C178.255 17 177.723 16.8367 177.369 16.51C177.014 16.1833 176.837 15.6467 176.837 14.9V10.378H175.843V9.328H176.837V7.396H178.111V9.328H180.113V10.378H178.111ZM185.002 17.126C184.283 17.126 183.63 16.9627 183.042 16.636C182.463 16.3093 182.006 15.8473 181.67 15.25C181.343 14.6433 181.18 13.9433 181.18 13.15C181.18 12.366 181.348 11.6753 181.684 11.078C182.029 10.4713 182.496 10.0093 183.084 9.692C183.672 9.36533 184.33 9.202 185.058 9.202C185.786 9.202 186.444 9.36533 187.032 9.692C187.62 10.0093 188.082 10.4667 188.418 11.064C188.763 11.6613 188.936 12.3567 188.936 13.15C188.936 13.9433 188.759 14.6433 188.404 15.25C188.059 15.8473 187.587 16.3093 186.99 16.636C186.393 16.9627 185.73 17.126 185.002 17.126ZM185.002 16.006C185.459 16.006 185.889 15.8987 186.29 15.684C186.691 15.4693 187.013 15.1473 187.256 14.718C187.508 14.2887 187.634 13.766 187.634 13.15C187.634 12.534 187.513 12.0113 187.27 11.582C187.027 11.1527 186.71 10.8353 186.318 10.63C185.926 10.4153 185.501 10.308 185.044 10.308C184.577 10.308 184.148 10.4153 183.756 10.63C183.373 10.8353 183.065 11.1527 182.832 11.582C182.599 12.0113 182.482 12.534 182.482 13.15C182.482 13.7753 182.594 14.3027 182.818 14.732C183.051 15.1613 183.359 15.4833 183.742 15.698C184.125 15.9033 184.545 16.006 185.002 16.006ZM186.43 7.06L183.448 8.656V7.704L186.43 5.954V7.06ZM191.885 10.574C192.109 10.1353 192.427 9.79467 192.837 9.552C193.257 9.30933 193.766 9.188 194.363 9.188V10.504H194.027C192.599 10.504 191.885 11.2787 191.885 12.828V17H190.611V9.328H191.885V10.574ZM196.492 8.082C196.249 8.082 196.044 7.998 195.876 7.83C195.708 7.662 195.624 7.45667 195.624 7.214C195.624 6.97133 195.708 6.766 195.876 6.598C196.044 6.43 196.249 6.346 196.492 6.346C196.725 6.346 196.921 6.43 197.08 6.598C197.248 6.766 197.332 6.97133 197.332 7.214C197.332 7.45667 197.248 7.662 197.08 7.83C196.921 7.998 196.725 8.082 196.492 8.082ZM197.108 9.328V17H195.834V9.328H197.108ZM198.803 13.136C198.803 12.352 198.962 11.666 199.279 11.078C199.597 10.4807 200.031 10.0187 200.581 9.692C201.141 9.36533 201.762 9.202 202.443 9.202C203.115 9.202 203.699 9.34667 204.193 9.636C204.688 9.92533 205.057 10.2893 205.299 10.728V9.328H206.587V17H205.299V15.572C205.047 16.02 204.669 16.3933 204.165 16.692C203.671 16.9813 203.092 17.126 202.429 17.126C201.748 17.126 201.132 16.958 200.581 16.622C200.031 16.286 199.597 15.8147 199.279 15.208C198.962 14.6013 198.803 13.9107 198.803 13.136ZM205.299 13.15C205.299 12.5713 205.183 12.0673 204.949 11.638C204.716 11.2087 204.399 10.882 203.997 10.658C203.605 10.4247 203.171 10.308 202.695 10.308C202.219 10.308 201.785 10.42 201.393 10.644C201.001 10.868 200.689 11.1947 200.455 11.624C200.222 12.0533 200.105 12.5573 200.105 13.136C200.105 13.724 200.222 14.2373 200.455 14.676C200.689 15.1053 201.001 15.4367 201.393 15.67C201.785 15.894 202.219 16.006 202.695 16.006C203.171 16.006 203.605 15.894 203.997 15.67C204.399 15.4367 204.716 15.1053 204.949 14.676C205.183 14.2373 205.299 13.7287 205.299 13.15Z" fill="white"/>
</g>
</svg>
