<svg width="235" height="20" viewBox="0 0 235 20" fill="none" xmlns="http://www.w3.org/2000/svg">
<mask id="mask0_2_543" style="mask-type:luminance" maskUnits="userSpaceOnUse" x="0" y="0" width="235" height="20">
<path d="M235 0H0V20H235V0Z" fill="white"/>
</mask>
<g mask="url(#mask0_2_543)">
<path d="M8.358 10.336C8.358 10.9053 8.22733 11.428 7.966 11.904C7.70467 12.3707 7.30333 12.7487 6.762 13.038C6.22067 13.3273 5.54867 13.472 4.746 13.472H3.262V17H0.868V7.172H4.746C5.53 7.172 6.19267 7.30733 6.734 7.578C7.27533 7.84867 7.68133 8.222 7.952 8.698C8.22267 9.174 8.358 9.72 8.358 10.336ZM4.564 11.568C5.02133 11.568 5.362 11.4607 5.586 11.246C5.81 11.0313 5.922 10.728 5.922 10.336C5.922 9.944 5.81 9.64067 5.586 9.426C5.362 9.21133 5.02133 9.104 4.564 9.104H3.262V11.568H4.564ZM11.9983 10.49C12.2783 10.0607 12.6283 9.72467 13.0483 9.482C13.4683 9.23 13.935 9.104 14.4483 9.104V11.638H13.7903C13.193 11.638 12.745 11.7687 12.4463 12.03C12.1477 12.282 11.9983 12.73 11.9983 13.374V17H9.60433V9.188H11.9983V10.49ZM19.1486 17.112C18.3833 17.112 17.6926 16.9487 17.0766 16.622C16.4699 16.2953 15.9893 15.8287 15.6346 15.222C15.2893 14.6153 15.1166 13.906 15.1166 13.094C15.1166 12.2913 15.2939 11.5867 15.6486 10.98C16.0033 10.364 16.4886 9.89267 17.1046 9.566C17.7206 9.23933 18.4113 9.076 19.1766 9.076C19.9419 9.076 20.6326 9.23933 21.2486 9.566C21.8646 9.89267 22.3499 10.364 22.7046 10.98C23.0593 11.5867 23.2366 12.2913 23.2366 13.094C23.2366 13.8967 23.0546 14.606 22.6906 15.222C22.3359 15.8287 21.8459 16.2953 21.2206 16.622C20.6046 16.9487 19.9139 17.112 19.1486 17.112ZM19.1486 15.04C19.6059 15.04 19.9933 14.872 20.3106 14.536C20.6373 14.2 20.8006 13.7193 20.8006 13.094C20.8006 12.4687 20.6419 11.988 20.3246 11.652C20.0166 11.316 19.6339 11.148 19.1766 11.148C18.7099 11.148 18.3226 11.316 18.0146 11.652C17.7066 11.9787 17.5526 12.4593 17.5526 13.094C17.5526 13.7193 17.7019 14.2 18.0006 14.536C18.3086 14.872 18.6913 15.04 19.1486 15.04ZM28.4267 11.176H27.1387V17H24.7447V11.176H23.8767V9.188H24.7447V8.964C24.7447 8.00267 25.02 7.27467 25.5707 6.78C26.1213 6.276 26.9287 6.024 27.9927 6.024C28.17 6.024 28.3007 6.02867 28.3847 6.038V8.068C27.9273 8.04 27.6053 8.10533 27.4187 8.264C27.232 8.42267 27.1387 8.70733 27.1387 9.118V9.188H28.4267V11.176ZM29.0336 9.594C29.0336 9.09933 29.1503 8.66533 29.3836 8.292C29.6263 7.90933 29.9623 7.61067 30.3916 7.396C30.8303 7.18133 31.3296 7.074 31.8896 7.074C32.4496 7.074 32.9443 7.18133 33.3736 7.396C33.8123 7.61067 34.1483 7.90933 34.3816 8.292C34.6243 8.66533 34.7456 9.09933 34.7456 9.594C34.7456 10.0887 34.6243 10.5273 34.3816 10.91C34.1389 11.2927 33.7983 11.596 33.3596 11.82C32.9303 12.0347 32.4356 12.142 31.8756 12.142C31.3156 12.142 30.8209 12.0347 30.3916 11.82C29.9623 11.596 29.6263 11.2927 29.3836 10.91C29.1503 10.5273 29.0336 10.0887 29.0336 9.594ZM32.8976 9.608C32.8976 9.23467 32.7996 8.95 32.6036 8.754C32.4076 8.558 32.1649 8.46 31.8756 8.46C31.5956 8.46 31.3576 8.558 31.1616 8.754C30.9749 8.95 30.8816 9.23467 30.8816 9.608C30.8816 9.972 30.9749 10.252 31.1616 10.448C31.3483 10.644 31.5863 10.742 31.8756 10.742C32.1649 10.742 32.4076 10.644 32.6036 10.448C32.7996 10.2427 32.8976 9.96267 32.8976 9.608ZM45.0485 15.264H41.3805L40.7925 17H38.2865L41.8425 7.172H44.6145L48.1705 17H45.6365L45.0485 15.264ZM44.4325 13.416L43.2145 9.818L42.0105 13.416H44.4325ZM54.0128 9.104C54.9274 9.104 55.6554 9.40267 56.1968 10C56.7474 10.588 57.0228 11.4 57.0228 12.436V17H54.6428V12.758C54.6428 12.2353 54.5074 11.8293 54.2368 11.54C53.9661 11.2507 53.6021 11.106 53.1448 11.106C52.6874 11.106 52.3234 11.2507 52.0528 11.54C51.7821 11.8293 51.6468 12.2353 51.6468 12.758V17H49.2528V9.188H51.6468V10.224C51.8894 9.87867 52.2161 9.608 52.6268 9.412C53.0374 9.20667 53.4994 9.104 54.0128 9.104ZM58.2104 13.08C58.2104 12.2773 58.3597 11.5727 58.6584 10.966C58.9664 10.3593 59.3817 9.89267 59.9044 9.566C60.427 9.23933 61.0104 9.076 61.6544 9.076C62.1677 9.076 62.6344 9.18333 63.0544 9.398C63.4837 9.61267 63.8197 9.902 64.0624 10.266V6.64H66.4564V17H64.0624V15.88C63.8384 16.2533 63.5164 16.552 63.0964 16.776C62.6857 17 62.205 17.112 61.6544 17.112C61.0104 17.112 60.427 16.9487 59.9044 16.622C59.3817 16.286 58.9664 15.8147 58.6584 15.208C58.3597 14.592 58.2104 13.8827 58.2104 13.08ZM64.0624 13.094C64.0624 12.4967 63.8944 12.0253 63.5584 11.68C63.2317 11.3347 62.8304 11.162 62.3544 11.162C61.8784 11.162 61.4724 11.3347 61.1364 11.68C60.8097 12.016 60.6464 12.4827 60.6464 13.08C60.6464 13.6773 60.8097 14.1533 61.1364 14.508C61.4724 14.8533 61.8784 15.026 62.3544 15.026C62.8304 15.026 63.2317 14.8533 63.5584 14.508C63.8944 14.1627 64.0624 13.6913 64.0624 13.094ZM70.5823 10.49C70.8623 10.0607 71.2123 9.72467 71.6323 9.482C72.0523 9.23 72.519 9.104 73.0323 9.104V11.638H72.3743C71.777 11.638 71.329 11.7687 71.0303 12.03C70.7316 12.282 70.5823 12.73 70.5823 13.374V17H68.1883V9.188H70.5823V10.49ZM81.5406 12.968C81.5406 13.192 81.5266 13.4253 81.4986 13.668H76.0806C76.1179 14.1533 76.2719 14.5267 76.5426 14.788C76.8226 15.04 77.1633 15.166 77.5646 15.166C78.1619 15.166 78.5773 14.914 78.8106 14.41H81.3586C81.2279 14.9233 80.9899 15.3853 80.6446 15.796C80.3086 16.2067 79.8839 16.5287 79.3706 16.762C78.8573 16.9953 78.2833 17.112 77.6486 17.112C76.8833 17.112 76.2019 16.9487 75.6046 16.622C75.0073 16.2953 74.5406 15.8287 74.2046 15.222C73.8686 14.6153 73.7006 13.906 73.7006 13.094C73.7006 12.282 73.8639 11.5727 74.1906 10.966C74.5266 10.3593 74.9933 9.89267 75.5906 9.566C76.1879 9.23933 76.8739 9.076 77.6486 9.076C78.4046 9.076 79.0766 9.23467 79.6646 9.552C80.2526 9.86933 80.7099 10.322 81.0366 10.91C81.3726 11.498 81.5406 12.184 81.5406 12.968ZM79.0906 12.338C79.0906 11.9273 78.9506 11.6007 78.6706 11.358C78.3906 11.1153 78.0406 10.994 77.6206 10.994C77.2193 10.994 76.8786 11.1107 76.5986 11.344C76.3279 11.5773 76.1599 11.9087 76.0946 12.338H79.0906ZM79.2586 7.186L75.8846 8.6V6.948L79.2586 5.324V7.186ZM85.2943 13.08C85.2943 12.2773 85.4437 11.5727 85.7423 10.966C86.0503 10.3593 86.4657 9.89267 86.9883 9.566C87.511 9.23933 88.0943 9.076 88.7383 9.076C89.2517 9.076 89.7183 9.18333 90.1383 9.398C90.5677 9.61267 90.9037 9.902 91.1463 10.266V6.64H93.5403V17H91.1463V15.88C90.9223 16.2533 90.6003 16.552 90.1803 16.776C89.7697 17 89.289 17.112 88.7383 17.112C88.0943 17.112 87.511 16.9487 86.9883 16.622C86.4657 16.286 86.0503 15.8147 85.7423 15.208C85.4437 14.592 85.2943 13.8827 85.2943 13.08ZM91.1463 13.094C91.1463 12.4967 90.9783 12.0253 90.6423 11.68C90.3157 11.3347 89.9143 11.162 89.4383 11.162C88.9623 11.162 88.5563 11.3347 88.2203 11.68C87.8937 12.016 87.7303 12.4827 87.7303 13.08C87.7303 13.6773 87.8937 14.1533 88.2203 14.508C88.5563 14.8533 88.9623 15.026 89.4383 15.026C89.9143 15.026 90.3157 14.8533 90.6423 14.508C90.9783 14.1627 91.1463 13.6913 91.1463 13.094ZM98.8283 17.112C98.063 17.112 97.3723 16.9487 96.7563 16.622C96.1496 16.2953 95.669 15.8287 95.3143 15.222C94.969 14.6153 94.7963 13.906 94.7963 13.094C94.7963 12.2913 94.9736 11.5867 95.3283 10.98C95.683 10.364 96.1683 9.89267 96.7843 9.566C97.4003 9.23933 98.091 9.076 98.8563 9.076C99.6216 9.076 100.312 9.23933 100.928 9.566C101.544 9.89267 102.03 10.364 102.384 10.98C102.739 11.5867 102.916 12.2913 102.916 13.094C102.916 13.8967 102.734 14.606 102.37 15.222C102.016 15.8287 101.526 16.2953 100.9 16.622C100.284 16.9487 99.5936 17.112 98.8283 17.112ZM98.8283 15.04C99.2856 15.04 99.673 14.872 99.9903 14.536C100.317 14.2 100.48 13.7193 100.48 13.094C100.48 12.4687 100.322 11.988 100.004 11.652C99.6963 11.316 99.3136 11.148 98.8563 11.148C98.3896 11.148 98.0023 11.316 97.6943 11.652C97.3863 11.9787 97.2323 12.4593 97.2323 13.094C97.2323 13.7193 97.3816 14.2 97.6803 14.536C97.9883 14.872 98.371 15.04 98.8283 15.04ZM115.945 17H113.551L109.547 10.938V17H107.153V7.172H109.547L113.551 13.262V7.172H115.945V17ZM117.205 13.08C117.205 12.2773 117.354 11.5727 117.653 10.966C117.961 10.3593 118.376 9.89267 118.899 9.566C119.421 9.23933 120.005 9.076 120.649 9.076C121.199 9.076 121.68 9.188 122.091 9.412C122.511 9.636 122.833 9.93 123.057 10.294V9.188H125.451V17H123.057V15.894C122.823 16.258 122.497 16.552 122.077 16.776C121.666 17 121.185 17.112 120.635 17.112C120 17.112 119.421 16.9487 118.899 16.622C118.376 16.286 117.961 15.8147 117.653 15.208C117.354 14.592 117.205 13.8827 117.205 13.08ZM123.057 13.094C123.057 12.4967 122.889 12.0253 122.553 11.68C122.226 11.3347 121.825 11.162 121.349 11.162C120.873 11.162 120.467 11.3347 120.131 11.68C119.804 12.016 119.641 12.4827 119.641 13.08C119.641 13.6773 119.804 14.1533 120.131 14.508C120.467 14.8533 120.873 15.026 121.349 15.026C121.825 15.026 122.226 14.8533 122.553 14.508C122.889 14.1627 123.057 13.6913 123.057 13.094ZM130.36 17.112C129.679 17.112 129.072 16.9953 128.54 16.762C128.008 16.5287 127.588 16.2113 127.28 15.81C126.972 15.3993 126.8 14.942 126.762 14.438H129.128C129.156 14.7087 129.282 14.928 129.506 15.096C129.73 15.264 130.006 15.348 130.332 15.348C130.631 15.348 130.86 15.292 131.018 15.18C131.186 15.0587 131.27 14.9047 131.27 14.718C131.27 14.494 131.154 14.3307 130.92 14.228C130.687 14.116 130.309 13.9947 129.786 13.864C129.226 13.7333 128.76 13.598 128.386 13.458C128.013 13.3087 127.691 13.08 127.42 12.772C127.15 12.4547 127.014 12.03 127.014 11.498C127.014 11.05 127.136 10.644 127.378 10.28C127.63 9.90667 127.994 9.61267 128.47 9.398C128.956 9.18333 129.53 9.076 130.192 9.076C131.172 9.076 131.942 9.31867 132.502 9.804C133.072 10.2893 133.398 10.9333 133.482 11.736H131.27C131.233 11.4653 131.112 11.2507 130.906 11.092C130.71 10.9333 130.449 10.854 130.122 10.854C129.842 10.854 129.628 10.91 129.478 11.022C129.329 11.1247 129.254 11.2693 129.254 11.456C129.254 11.68 129.371 11.848 129.604 11.96C129.847 12.072 130.22 12.184 130.724 12.296C131.303 12.4453 131.774 12.5947 132.138 12.744C132.502 12.884 132.82 13.1173 133.09 13.444C133.37 13.7613 133.515 14.1907 133.524 14.732C133.524 15.1893 133.394 15.6 133.132 15.964C132.88 16.3187 132.512 16.5987 132.026 16.804C131.55 17.0093 130.995 17.112 130.36 17.112ZM134.513 13.094C134.513 12.282 134.676 11.5727 135.003 10.966C135.339 10.3593 135.801 9.89267 136.389 9.566C136.986 9.23933 137.668 9.076 138.433 9.076C139.413 9.076 140.23 9.33267 140.883 9.846C141.546 10.3593 141.98 11.0827 142.185 12.016H139.637C139.422 11.4187 139.007 11.12 138.391 11.12C137.952 11.12 137.602 11.2927 137.341 11.638C137.08 11.974 136.949 12.4593 136.949 13.094C136.949 13.7287 137.08 14.2187 137.341 14.564C137.602 14.9 137.952 15.068 138.391 15.068C139.007 15.068 139.422 14.7693 139.637 14.172H142.185C141.98 15.0867 141.546 15.8053 140.883 16.328C140.22 16.8507 139.404 17.112 138.433 17.112C137.668 17.112 136.986 16.9487 136.389 16.622C135.801 16.2953 135.339 15.8287 135.003 15.222C134.676 14.6153 134.513 13.906 134.513 13.094ZM144.67 8.376C144.25 8.376 143.904 8.25467 143.634 8.012C143.372 7.76 143.242 7.452 143.242 7.088C143.242 6.71467 143.372 6.40667 143.634 6.164C143.904 5.912 144.25 5.786 144.67 5.786C145.08 5.786 145.416 5.912 145.678 6.164C145.948 6.40667 146.084 6.71467 146.084 7.088C146.084 7.452 145.948 7.76 145.678 8.012C145.416 8.25467 145.08 8.376 144.67 8.376ZM145.86 9.188V17H143.466V9.188H145.86ZM157.563 9.104C158.533 9.104 159.303 9.398 159.873 9.986C160.451 10.574 160.741 11.3907 160.741 12.436V17H158.361V12.758C158.361 12.254 158.225 11.8667 157.955 11.596C157.693 11.316 157.329 11.176 156.863 11.176C156.396 11.176 156.027 11.316 155.757 11.596C155.495 11.8667 155.365 12.254 155.365 12.758V17H152.985V12.758C152.985 12.254 152.849 11.8667 152.579 11.596C152.317 11.316 151.953 11.176 151.487 11.176C151.02 11.176 150.651 11.316 150.381 11.596C150.119 11.8667 149.989 12.254 149.989 12.758V17H147.595V9.188H149.989V10.168C150.231 9.84133 150.549 9.58467 150.941 9.398C151.333 9.202 151.776 9.104 152.271 9.104C152.859 9.104 153.381 9.23 153.839 9.482C154.305 9.734 154.669 10.0933 154.931 10.56C155.201 10.1307 155.57 9.78067 156.037 9.51C156.503 9.23933 157.012 9.104 157.563 9.104ZM169.779 12.968C169.779 13.192 169.765 13.4253 169.737 13.668H164.319C164.356 14.1533 164.51 14.5267 164.781 14.788C165.061 15.04 165.402 15.166 165.803 15.166C166.4 15.166 166.816 14.914 167.049 14.41H169.597C169.466 14.9233 169.228 15.3853 168.883 15.796C168.547 16.2067 168.122 16.5287 167.609 16.762C167.096 16.9953 166.522 17.112 165.887 17.112C165.122 17.112 164.44 16.9487 163.843 16.622C163.246 16.2953 162.779 15.8287 162.443 15.222C162.107 14.6153 161.939 13.906 161.939 13.094C161.939 12.282 162.102 11.5727 162.429 10.966C162.765 10.3593 163.232 9.89267 163.829 9.566C164.426 9.23933 165.112 9.076 165.887 9.076C166.643 9.076 167.315 9.23467 167.903 9.552C168.491 9.86933 168.948 10.322 169.275 10.91C169.611 11.498 169.779 12.184 169.779 12.968ZM167.329 12.338C167.329 11.9273 167.189 11.6007 166.909 11.358C166.629 11.1153 166.279 10.994 165.859 10.994C165.458 10.994 165.117 11.1107 164.837 11.344C164.566 11.5773 164.398 11.9087 164.333 12.338H167.329ZM175.802 9.104C176.716 9.104 177.444 9.40267 177.986 10C178.536 10.588 178.812 11.4 178.812 12.436V17H176.432V12.758C176.432 12.2353 176.296 11.8293 176.026 11.54C175.755 11.2507 175.391 11.106 174.934 11.106C174.476 11.106 174.112 11.2507 173.842 11.54C173.571 11.8293 173.436 12.2353 173.436 12.758V17H171.042V9.188H173.436V10.224C173.678 9.87867 174.005 9.608 174.416 9.412C174.826 9.20667 175.288 9.104 175.802 9.104ZM184.829 14.97V17H183.611C182.743 17 182.067 16.79 181.581 16.37C181.096 15.9407 180.853 15.2453 180.853 14.284V11.176H179.901V9.188H180.853V7.284H183.247V9.188H184.815V11.176H183.247V14.312C183.247 14.5453 183.303 14.7133 183.415 14.816C183.527 14.9187 183.714 14.97 183.975 14.97H184.829ZM189.719 17.112C188.954 17.112 188.263 16.9487 187.647 16.622C187.04 16.2953 186.56 15.8287 186.205 15.222C185.86 14.6153 185.687 13.906 185.687 13.094C185.687 12.2913 185.864 11.5867 186.219 10.98C186.574 10.364 187.059 9.89267 187.675 9.566C188.291 9.23933 188.982 9.076 189.747 9.076C190.512 9.076 191.203 9.23933 191.819 9.566C192.435 9.89267 192.92 10.364 193.275 10.98C193.63 11.5867 193.807 12.2913 193.807 13.094C193.807 13.8967 193.625 14.606 193.261 15.222C192.906 15.8287 192.416 16.2953 191.791 16.622C191.175 16.9487 190.484 17.112 189.719 17.112ZM189.719 15.04C190.176 15.04 190.564 14.872 190.881 14.536C191.208 14.2 191.371 13.7193 191.371 13.094C191.371 12.4687 191.212 11.988 190.895 11.652C190.587 11.316 190.204 11.148 189.747 11.148C189.28 11.148 188.893 11.316 188.585 11.652C188.277 11.9787 188.123 12.4593 188.123 13.094C188.123 13.7193 188.272 14.2 188.571 14.536C188.879 14.872 189.262 15.04 189.719 15.04Z" fill="white"/>
</g>
</svg>
