<svg width="120" height="20" viewBox="0 0 120 20" fill="none" xmlns="http://www.w3.org/2000/svg">
<mask id="mask0_2_93" style="mask-type:luminance" maskUnits="userSpaceOnUse" x="0" y="0" width="120" height="20">
<path d="M120 0H0V20H120V0Z" fill="white"/>
</mask>
<g mask="url(#mask0_2_93)">
<path d="M5.2 6.268C6.384 6.268 7.41867 6.50267 8.304 6.972C9.18933 7.44133 9.872 8.10267 10.352 8.956C10.8427 9.79867 11.088 10.7747 11.088 11.884C11.088 12.9827 10.8427 13.9587 10.352 14.812C9.872 15.6653 9.184 16.3267 8.288 16.796C7.40267 17.2653 6.37333 17.5 5.2 17.5H0.992V6.268H5.2ZM5.024 15.132C6.05867 15.132 6.864 14.8493 7.44 14.284C8.016 13.7187 8.304 12.9187 8.304 11.884C8.304 10.8493 8.016 10.044 7.44 9.468C6.864 8.892 6.05867 8.604 5.024 8.604H3.728V15.132H5.024ZM13.993 7.644C13.513 7.644 13.1183 7.50533 12.809 7.228C12.5103 6.94 12.361 6.588 12.361 6.172C12.361 5.74533 12.5103 5.39333 12.809 5.116C13.1183 4.828 13.513 4.684 13.993 4.684C14.4623 4.684 14.8463 4.828 15.145 5.116C15.4543 5.39333 15.609 5.74533 15.609 6.172C15.609 6.588 15.4543 6.94 15.145 7.228C14.8463 7.50533 14.4623 7.644 13.993 7.644ZM15.353 8.572V17.5H12.617V8.572H15.353ZM20.7278 8.444C21.3571 8.444 21.9064 8.572 22.3758 8.828C22.8558 9.084 23.2238 9.42 23.4798 9.836V8.572H26.2158V17.484C26.2158 18.3053 26.0504 19.0467 25.7198 19.708C25.3998 20.38 24.9038 20.9133 24.2318 21.308C23.5704 21.7027 22.7438 21.9 21.7518 21.9C20.4291 21.9 19.3571 21.5853 18.5358 20.956C17.7144 20.3373 17.2451 19.4947 17.1278 18.428H19.8318C19.9171 18.7693 20.1198 19.036 20.4398 19.228C20.7598 19.4307 21.1544 19.532 21.6238 19.532C22.1891 19.532 22.6371 19.3667 22.9678 19.036C23.3091 18.716 23.4798 18.1987 23.4798 17.484V16.22C23.2131 16.636 22.8451 16.9773 22.3758 17.244C21.9064 17.5 21.3571 17.628 20.7278 17.628C19.9918 17.628 19.3251 17.4413 18.7278 17.068C18.1304 16.684 17.6558 16.1453 17.3038 15.452C16.9624 14.748 16.7918 13.9373 16.7918 13.02C16.7918 12.1027 16.9624 11.2973 17.3038 10.604C17.6558 9.91067 18.1304 9.37733 18.7278 9.004C19.3251 8.63067 19.9918 8.444 20.7278 8.444ZM23.4798 13.036C23.4798 12.3533 23.2878 11.8147 22.9038 11.42C22.5304 11.0253 22.0718 10.828 21.5278 10.828C20.9838 10.828 20.5198 11.0253 20.1358 11.42C19.7624 11.804 19.5758 12.3373 19.5758 13.02C19.5758 13.7027 19.7624 14.2467 20.1358 14.652C20.5198 15.0467 20.9838 15.244 21.5278 15.244C22.0718 15.244 22.5304 15.0467 22.9038 14.652C23.2878 14.2573 23.4798 13.7187 23.4798 13.036ZM29.5711 7.644C29.0911 7.644 28.6965 7.50533 28.3871 7.228C28.0885 6.94 27.9391 6.588 27.9391 6.172C27.9391 5.74533 28.0885 5.39333 28.3871 5.116C28.6965 4.828 29.0911 4.684 29.5711 4.684C30.0405 4.684 30.4245 4.828 30.7231 5.116C31.0325 5.39333 31.1871 5.74533 31.1871 6.172C31.1871 6.588 31.0325 6.94 30.7231 7.228C30.4245 7.50533 30.0405 7.644 29.5711 7.644ZM30.9311 8.572V17.5H28.1951V8.572H30.9311ZM37.8899 15.18V17.5H36.4979C35.5059 17.5 34.7325 17.26 34.1779 16.78C33.6232 16.2893 33.3459 15.4947 33.3459 14.396V10.844H32.2579V8.572H33.3459V6.396H36.0819V8.572H37.8739V10.844H36.0819V14.428C36.0819 14.6947 36.1459 14.8867 36.2739 15.004C36.4019 15.1213 36.6152 15.18 36.9139 15.18H37.8899ZM38.8699 13.02C38.8699 12.1027 39.0405 11.2973 39.3819 10.604C39.7339 9.91067 40.2085 9.37733 40.8059 9.004C41.4032 8.63067 42.0699 8.444 42.8059 8.444C43.4352 8.444 43.9845 8.572 44.4539 8.828C44.9339 9.084 45.3019 9.42 45.5579 9.836V8.572H48.2939V17.5H45.5579V16.236C45.2912 16.652 44.9179 16.988 44.4379 17.244C43.9685 17.5 43.4192 17.628 42.7899 17.628C42.0645 17.628 41.4032 17.4413 40.8059 17.068C40.2085 16.684 39.7339 16.1453 39.3819 15.452C39.0405 14.748 38.8699 13.9373 38.8699 13.02ZM45.5579 13.036C45.5579 12.3533 45.3659 11.8147 44.9819 11.42C44.6085 11.0253 44.1499 10.828 43.6059 10.828C43.0619 10.828 42.5979 11.0253 42.2139 11.42C41.8405 11.804 41.6539 12.3373 41.6539 13.02C41.6539 13.7027 41.8405 14.2467 42.2139 14.652C42.5979 15.0467 43.0619 15.244 43.6059 15.244C44.1499 15.244 44.6085 15.0467 44.9819 14.652C45.3659 14.2573 45.5579 13.7187 45.5579 13.036ZM53.0093 5.66V17.5H50.2733V5.66H53.0093Z" fill="white"/>
</g>
</svg>
