<svg width="82" height="16" viewBox="0 0 82 16" fill="none" xmlns="http://www.w3.org/2000/svg">
<mask id="mask0_131_121" style="mask-type:luminance" maskUnits="userSpaceOnUse" x="0" y="0" width="82" height="16">
<path d="M82 0H0V16H82V0Z" fill="white"/>
</mask>
<g mask="url(#mask0_131_121)">
<path d="M6.072 5.136V6.024H3.792V13.5H2.7V6.024H0.408V5.136H6.072ZM13.4162 9.96C13.4162 10.168 13.4042 10.388 13.3802 10.62H8.12419C8.16419 11.268 8.38419 11.776 8.78419 12.144C9.19219 12.504 9.68419 12.684 10.2602 12.684C10.7322 12.684 11.1242 12.576 11.4362 12.36C11.7562 12.136 11.9802 11.84 12.1082 11.472H13.2842C13.1082 12.104 12.7562 12.62 12.2282 13.02C11.7002 13.412 11.0442 13.608 10.2602 13.608C9.63619 13.608 9.07619 13.468 8.58019 13.188C8.09219 12.908 7.70819 12.512 7.42819 12C7.14819 11.48 7.00819 10.88 7.00819 10.2C7.00819 9.52 7.14419 8.924 7.41619 8.412C7.68819 7.9 8.06819 7.508 8.55619 7.236C9.05219 6.956 9.62019 6.816 10.2602 6.816C10.8842 6.816 11.4362 6.952 11.9162 7.224C12.3962 7.496 12.7642 7.872 13.0202 8.352C13.2842 8.824 13.4162 9.36 13.4162 9.96ZM12.2882 9.732C12.2882 9.316 12.1962 8.96 12.0122 8.664C11.8282 8.36 11.5762 8.132 11.2562 7.98C10.9442 7.82 10.5962 7.74 10.2122 7.74C9.66019 7.74 9.18819 7.916 8.79619 8.268C8.41219 8.62 8.19219 9.108 8.13619 9.732H12.2882ZM14.4496 10.2C14.4496 9.52 14.5856 8.928 14.8576 8.424C15.1296 7.912 15.5056 7.516 15.9856 7.236C16.4736 6.956 17.0296 6.816 17.6536 6.816C18.4616 6.816 19.1256 7.012 19.6456 7.404C20.1736 7.796 20.5216 8.34 20.6896 9.036H19.5136C19.4016 8.636 19.1816 8.32 18.8536 8.088C18.5336 7.856 18.1336 7.74 17.6536 7.74C17.0296 7.74 16.5256 7.956 16.1416 8.388C15.7576 8.812 15.5656 9.416 15.5656 10.2C15.5656 10.992 15.7576 11.604 16.1416 12.036C16.5256 12.468 17.0296 12.684 17.6536 12.684C18.1336 12.684 18.5336 12.572 18.8536 12.348C19.1736 12.124 19.3936 11.804 19.5136 11.388H20.6896C20.5136 12.06 20.1616 12.6 19.6336 13.008C19.1056 13.408 18.4456 13.608 17.6536 13.608C17.0296 13.608 16.4736 13.468 15.9856 13.188C15.5056 12.908 15.1296 12.512 14.8576 12C14.5856 11.488 14.4496 10.888 14.4496 10.2ZM25.3507 6.804C26.1507 6.804 26.7987 7.048 27.2947 7.536C27.7907 8.016 28.0387 8.712 28.0387 9.624V13.5H26.9587V9.78C26.9587 9.124 26.7947 8.624 26.4667 8.28C26.1387 7.928 25.6907 7.752 25.1227 7.752C24.5467 7.752 24.0867 7.932 23.7427 8.292C23.4067 8.652 23.2387 9.176 23.2387 9.864V13.5H22.1467V6.924H23.2387V7.86C23.4547 7.524 23.7467 7.264 24.1147 7.08C24.4907 6.896 24.9027 6.804 25.3507 6.804ZM32.6904 13.608C32.0744 13.608 31.5144 13.468 31.0104 13.188C30.5144 12.908 30.1224 12.512 29.8344 12C29.5544 11.48 29.4144 10.88 29.4144 10.2C29.4144 9.528 29.5584 8.936 29.8464 8.424C30.1424 7.904 30.5424 7.508 31.0464 7.236C31.5504 6.956 32.1144 6.816 32.7384 6.816C33.3624 6.816 33.9264 6.956 34.4304 7.236C34.9344 7.508 35.3304 7.9 35.6184 8.412C35.9144 8.924 36.0624 9.52 36.0624 10.2C36.0624 10.88 35.9104 11.48 35.6064 12C35.3104 12.512 34.9064 12.908 34.3944 13.188C33.8824 13.468 33.3144 13.608 32.6904 13.608ZM32.6904 12.648C33.0824 12.648 33.4504 12.556 33.7944 12.372C34.1384 12.188 34.4144 11.912 34.6224 11.544C34.8384 11.176 34.9464 10.728 34.9464 10.2C34.9464 9.672 34.8424 9.224 34.6344 8.856C34.4264 8.488 34.1544 8.216 33.8184 8.04C33.4824 7.856 33.1184 7.764 32.7264 7.764C32.3264 7.764 31.9584 7.856 31.6224 8.04C31.2944 8.216 31.0304 8.488 30.8304 8.856C30.6304 9.224 30.5304 9.672 30.5304 10.2C30.5304 10.736 30.6264 11.188 30.8184 11.556C31.0184 11.924 31.2824 12.2 31.6104 12.384C31.9384 12.56 32.2984 12.648 32.6904 12.648ZM38.5902 4.62V13.5H37.4982V4.62H38.5902ZM43.3193 13.608C42.7033 13.608 42.1433 13.468 41.6393 13.188C41.1433 12.908 40.7513 12.512 40.4633 12C40.1833 11.48 40.0433 10.88 40.0433 10.2C40.0433 9.528 40.1873 8.936 40.4753 8.424C40.7713 7.904 41.1713 7.508 41.6753 7.236C42.1793 6.956 42.7433 6.816 43.3673 6.816C43.9913 6.816 44.5553 6.956 45.0593 7.236C45.5633 7.508 45.9593 7.9 46.2473 8.412C46.5433 8.924 46.6913 9.52 46.6913 10.2C46.6913 10.88 46.5393 11.48 46.2353 12C45.9393 12.512 45.5353 12.908 45.0233 13.188C44.5113 13.468 43.9433 13.608 43.3193 13.608ZM43.3193 12.648C43.7113 12.648 44.0793 12.556 44.4233 12.372C44.7673 12.188 45.0433 11.912 45.2513 11.544C45.4673 11.176 45.5753 10.728 45.5753 10.2C45.5753 9.672 45.4713 9.224 45.2633 8.856C45.0553 8.488 44.7833 8.216 44.4473 8.04C44.1113 7.856 43.7473 7.764 43.3553 7.764C42.9553 7.764 42.5873 7.856 42.2513 8.04C41.9233 8.216 41.6593 8.488 41.4593 8.856C41.2593 9.224 41.1593 9.672 41.1593 10.2C41.1593 10.736 41.2553 11.188 41.4473 11.556C41.6473 11.924 41.9113 12.2 42.2393 12.384C42.5673 12.56 42.9273 12.648 43.3193 12.648ZM50.8391 6.816C51.4071 6.816 51.9031 6.94 52.3271 7.188C52.7591 7.436 53.0791 7.748 53.2871 8.124V6.924H54.3911V13.644C54.3911 14.244 54.2631 14.776 54.0071 15.24C53.7511 15.712 53.3831 16.08 52.9031 16.344C52.4311 16.608 51.8791 16.74 51.2471 16.74C50.3831 16.74 49.6631 16.536 49.0871 16.128C48.5111 15.72 48.1711 15.164 48.0671 14.46H49.1471C49.2671 14.86 49.5151 15.18 49.8911 15.42C50.2671 15.668 50.7191 15.792 51.2471 15.792C51.8471 15.792 52.3351 15.604 52.7111 15.228C53.0951 14.852 53.2871 14.324 53.2871 13.644V12.264C53.0711 12.648 52.7511 12.968 52.3271 13.224C51.9031 13.48 51.4071 13.608 50.8391 13.608C50.2551 13.608 49.7231 13.464 49.2431 13.176C48.7711 12.888 48.3991 12.484 48.1271 11.964C47.8551 11.444 47.7191 10.852 47.7191 10.188C47.7191 9.516 47.8551 8.928 48.1271 8.424C48.3991 7.912 48.7711 7.516 49.2431 7.236C49.7231 6.956 50.2551 6.816 50.8391 6.816ZM53.2871 10.2C53.2871 9.704 53.1871 9.272 52.9871 8.904C52.7871 8.536 52.5151 8.256 52.1711 8.064C51.8351 7.864 51.4631 7.764 51.0551 7.764C50.6471 7.764 50.2751 7.86 49.9391 8.052C49.6031 8.244 49.3351 8.524 49.1351 8.892C48.9351 9.26 48.8351 9.692 48.8351 10.188C48.8351 10.692 48.9351 11.132 49.1351 11.508C49.3351 11.876 49.6031 12.16 49.9391 12.36C50.2751 12.552 50.6471 12.648 51.0551 12.648C51.4631 12.648 51.8351 12.552 52.1711 12.36C52.5151 12.16 52.7871 11.876 52.9871 11.508C53.1871 11.132 53.2871 10.696 53.2871 10.2ZM56.8005 5.856C56.5925 5.856 56.4165 5.784 56.2725 5.64C56.1285 5.496 56.0565 5.32 56.0565 5.112C56.0565 4.904 56.1285 4.728 56.2725 4.584C56.4165 4.44 56.5925 4.368 56.8005 4.368C57.0005 4.368 57.1685 4.44 57.3045 4.584C57.4485 4.728 57.5205 4.904 57.5205 5.112C57.5205 5.32 57.4485 5.496 57.3045 5.64C57.1685 5.784 57.0005 5.856 56.8005 5.856ZM57.3285 6.924V13.5H56.2365V6.924H57.3285ZM58.7816 10.188C58.7816 9.516 58.9176 8.928 59.1896 8.424C59.4616 7.912 59.8336 7.516 60.3056 7.236C60.7856 6.956 61.3176 6.816 61.9016 6.816C62.4776 6.816 62.9776 6.94 63.4016 7.188C63.8256 7.436 64.1416 7.748 64.3496 8.124V6.924H65.4536V13.5H64.3496V12.276C64.1336 12.66 63.8096 12.98 63.3776 13.236C62.9536 13.484 62.4576 13.608 61.8896 13.608C61.3056 13.608 60.7776 13.464 60.3056 13.176C59.8336 12.888 59.4616 12.484 59.1896 11.964C58.9176 11.444 58.7816 10.852 58.7816 10.188ZM64.3496 10.2C64.3496 9.704 64.2496 9.272 64.0496 8.904C63.8496 8.536 63.5776 8.256 63.2336 8.064C62.8976 7.864 62.5256 7.764 62.1176 7.764C61.7096 7.764 61.3376 7.86 61.0016 8.052C60.6656 8.244 60.3976 8.524 60.1976 8.892C59.9976 9.26 59.8976 9.692 59.8976 10.188C59.8976 10.692 59.9976 11.132 60.1976 11.508C60.3976 11.876 60.6656 12.16 61.0016 12.36C61.3376 12.552 61.7096 12.648 62.1176 12.648C62.5256 12.648 62.8976 12.552 63.2336 12.36C63.5776 12.16 63.8496 11.876 64.0496 11.508C64.2496 11.132 64.3496 10.696 64.3496 10.2Z" fill="white"/>
</g>
</svg>
