<svg width="17" height="22" viewBox="0 0 17 22" fill="none" xmlns="http://www.w3.org/2000/svg">
<path d="M14.1916 11.5705C14.1826 9.92188 14.9283 8.67754 16.4377 7.76113C15.5932 6.55273 14.3174 5.88789 12.6328 5.75762C11.0381 5.63184 9.29512 6.6875 8.65723 6.6875C7.9834 6.6875 6.43809 5.80254 5.2252 5.80254C2.71855 5.84297 0.0546875 7.80156 0.0546875 11.7861C0.0546875 12.9631 0.270312 14.179 0.701562 15.4338C1.27656 17.0824 3.35195 21.1254 5.51719 21.058C6.64922 21.0311 7.44883 20.2539 8.92227 20.2539C10.3508 20.2539 11.092 21.058 12.3543 21.058C14.5375 21.0266 16.4152 17.352 16.9633 15.6988C14.0344 14.3197 14.1916 11.6559 14.1916 11.5705ZM11.649 4.19434C12.8754 2.73887 12.7631 1.41367 12.7271 0.9375C11.6445 1.00039 10.3912 1.67422 9.67695 2.50527C8.89082 3.39473 8.42813 4.49531 8.52695 5.73516C9.69941 5.825 10.7686 5.22305 11.649 4.19434Z" fill="white"/>
</svg>
