<svg width="17" height="21" viewBox="0 0 17 21" fill="none" xmlns="http://www.w3.org/2000/svg">
<path d="M14.1916 11.0705C14.1826 9.42188 14.9283 8.17754 16.4377 7.26113C15.5932 6.05273 14.3174 5.38789 12.6328 5.25762C11.0381 5.13184 9.29512 6.1875 8.65723 6.1875C7.9834 6.1875 6.43809 5.30254 5.2252 5.30254C2.71855 5.34297 0.0546875 7.30156 0.0546875 11.2861C0.0546875 12.4631 0.270312 13.679 0.701562 14.9338C1.27656 16.5824 3.35195 20.6254 5.51719 20.558C6.64922 20.5311 7.44883 19.7539 8.92227 19.7539C10.3508 19.7539 11.092 20.558 12.3543 20.558C14.5375 20.5266 16.4152 16.852 16.9633 15.1988C14.0344 13.8197 14.1916 11.1559 14.1916 11.0705ZM11.649 3.69434C12.8754 2.23887 12.7631 0.913672 12.7271 0.4375C11.6445 0.500391 10.3912 1.17422 9.67695 2.00527C8.89082 2.89473 8.42813 3.99531 8.52695 5.23516C9.69941 5.325 10.7686 4.72305 11.649 3.69434Z" fill="white"/>
</svg>
